<svg viewBox="0 0 420 190" xmlns="http://www.w3.org/2000/svg" fill="none">
  <text x="210" y="20" text-anchor="middle" font-family="Arial,sans-serif" font-size="14" font-weight="bold" fill="#a78bfa">Pipeline RAG: come funziona la ricerca AI</text>
  <!-- Query -->
  <rect x="10" y="42" width="80" height="40" rx="6" stroke="#60a5fa" stroke-width="1.5"/>
  <text x="50" y="58" text-anchor="middle" font-family="Arial,sans-serif" font-size="9" font-weight="bold" fill="#60a5fa">Domanda dell'utente</text>
  <text x="50" y="72" text-anchor="middle" font-family="Arial,sans-serif" font-size="7" fill="#e2e8f0">"miglior scarpone da trekking"</text>
  <path d="M95 62 L110 62" stroke="#60a5fa" stroke-width="1.5" marker-end="url(#arA)"/>
  <!-- Retrieval -->
  <rect x="115" y="42" width="90" height="40" rx="6" stroke="#a78bfa" stroke-width="1.5"/>
  <text x="160" y="58" text-anchor="middle" font-family="Arial,sans-serif" font-size="9" font-weight="bold" fill="#a78bfa">Recupero</text>
  <text x="160" y="72" text-anchor="middle" font-family="Arial,sans-serif" font-size="7" fill="#e2e8f0">Segnali tradizionali</text>
  <path d="M210 62 L225 62" stroke="#a78bfa" stroke-width="1.5" marker-end="url(#arB)"/>
  <!-- Candidate pool -->
  <rect x="230" y="42" width="80" height="40" rx="6" stroke="#f97316" stroke-width="1.5"/>
  <text x="270" y="58" text-anchor="middle" font-family="Arial,sans-serif" font-size="9" font-weight="bold" fill="#f97316">Candidato</text>
  <text x="270" y="72" text-anchor="middle" font-family="Arial,sans-serif" font-size="7" fill="#e2e8f0">~50 documenti</text>
  <path d="M315 62 L330 62" stroke="#f97316" stroke-width="1.5" marker-end="url(#arC)"/>
  <!-- LLM Synthesis -->
  <rect x="335" y="42" width="75" height="40" rx="6" stroke="#4ade80" stroke-width="1.5"/>
  <text x="372" y="58" text-anchor="middle" font-family="Arial,sans-serif" font-size="9" font-weight="bold" fill="#4ade80">LLM</text>
  <text x="372" y="72" text-anchor="middle" font-family="Arial,sans-serif" font-size="7" fill="#e2e8f0">Sintesi</text>
  <!-- What gets you cited -->
  <text x="210" y="105" text-anchor="middle" font-family="Arial,sans-serif" font-size="11" font-weight="bold" fill="#e2e8f0">Fattori di selezione delle citazioni</text>
  <rect x="15" y="115" width="90" height="30" rx="4" stroke="#4ade80" stroke-width="1" stroke-dasharray="3"/>
  <text x="60" y="134" text-anchor="middle" font-family="Arial,sans-serif" font-size="8" fill="#4ade80">Autorità d'attualità</text>
  <rect x="115" y="115" width="90" height="30" rx="4" stroke="#60a5fa" stroke-width="1" stroke-dasharray="3"/>
  <text x="160" y="134" text-anchor="middle" font-family="Arial,sans-serif" font-size="8" fill="#60a5fa">Dati strutturati</text>
  <rect x="215" y="115" width="90" height="30" rx="4" stroke="#a78bfa" stroke-width="1" stroke-dasharray="3"/>
  <text x="260" y="134" text-anchor="middle" font-family="Arial,sans-serif" font-size="8" fill="#a78bfa">Dati proprietari</text>
  <rect x="315" y="115" width="90" height="30" rx="4" stroke="#f97316" stroke-width="1" stroke-dasharray="3"/>
  <text x="360" y="134" text-anchor="middle" font-family="Arial,sans-serif" font-size="8" fill="#f97316">Precisione fattuale</text>
  <!-- Output -->
  <rect x="100" y="158" width="220" height="25" rx="5" stroke="#4ade80" stroke-width="1.5"/>
  <text x="210" y="175" text-anchor="middle" font-family="Arial,sans-serif" font-size="9" fill="#4ade80">AI Answer cita 3-4 fonti con la pagina del tuo prodotto</text>
  <defs>
    <marker id="arA" markerWidth="6" markerHeight="6" refX="5" refY="3" orient="auto"><path d="M0,0 L6,3 L0,6" fill="#60a5fa"/></marker>
    <marker id="arB" markerWidth="6" markerHeight="6" refX="5" refY="3" orient="auto"><path d="M0,0 L6,3 L0,6" fill="#a78bfa"/></marker>
    <marker id="arC" markerWidth="6" markerHeight="6" refX="5" refY="3" orient="auto"><path d="M0,0 L6,3 L0,6" fill="#f97316"/></marker>
  </defs>
</svg>