<svg viewBox="0 0 420 220" xmlns="http://www.w3.org/2000/svg" fill="none">
  <text x="210" y="22" text-anchor="middle" font-family="Arial,sans-serif" font-size="14" font-weight="bold" fill="#a78bfa">Pipeline SEO programmatica</text>
  <!-- Step boxes -->
  <rect x="10" y="42" width="85" height="50" rx="6" stroke="#a78bfa" stroke-width="1.5"/>
  <text x="52" y="62" text-anchor="middle" font-family="Arial,sans-serif" font-size="10" font-weight="bold" fill="#a78bfa">1. Parola chiave</text>
  <text x="52" y="76" text-anchor="middle" font-family="Arial,sans-serif" font-size="9" fill="#e2e8f0">Motivo</text>
  <text x="52" y="87" text-anchor="middle" font-family="Arial,sans-serif" font-size="8" fill="#94a3b8">Marca/Tipo</text>
  <!-- Arrow -->
  <path d="M100 67 L115 67" stroke="#60a5fa" stroke-width="1.5" marker-end="url(#arr1)"/>
  <rect x="120" y="42" width="85" height="50" rx="6" stroke="#60a5fa" stroke-width="1.5"/>
  <text x="162" y="62" text-anchor="middle" font-family="Arial,sans-serif" font-size="10" font-weight="bold" fill="#60a5fa">&lt;g id="1"&gt;2) &lt;/g&gt;&lt;g id="2"&gt;modello&lt;/g&gt;</text>
  <text x="162" y="76" text-anchor="middle" font-family="Arial,sans-serif" font-size="9" fill="#e2e8f0">Costruzione</text>
  <text x="162" y="87" text-anchor="middle" font-family="Arial,sans-serif" font-size="8" fill="#94a3b8">Logica condizionale</text>
  <path d="M210 67 L225 67" stroke="#4ade80" stroke-width="1.5" marker-end="url(#arr2)"/>
  <rect x="230" y="42" width="85" height="50" rx="6" stroke="#4ade80" stroke-width="1.5"/>
  <text x="272" y="62" text-anchor="middle" font-family="Arial,sans-serif" font-size="10" font-weight="bold" fill="#4ade80">3 DATI</text>
  <text x="272" y="76" text-anchor="middle" font-family="Arial,sans-serif" font-size="9" fill="#e2e8f0">Popolazione</text>
  <text x="272" y="87" text-anchor="middle" font-family="Arial,sans-serif" font-size="8" fill="#94a3b8">3+ fonti/pagina</text>
  <path d="M320 67 L335 67" stroke="#f97316" stroke-width="1.5" marker-end="url(#arr3)"/>
  <rect x="340" y="42" width="70" height="50" rx="6" stroke="#f97316" stroke-width="1.5"/>
  <text x="375" y="62" text-anchor="middle" font-family="Arial,sans-serif" font-size="10" font-weight="bold" fill="#f97316">4. Pubblica</text>
  <text x="375" y="76" text-anchor="middle" font-family="Arial,sans-serif" font-size="9" fill="#e2e8f0">Su vasta scala.</text>
  <text x="375" y="87" text-anchor="middle" font-family="Arial,sans-serif" font-size="8" fill="#94a3b8">Migliaia di pagine</text>
  <!-- Data sources row -->
  <text x="210" y="120" text-anchor="middle" font-family="Arial,sans-serif" font-size="11" font-weight="bold" fill="#e2e8f0">Origini dati per pagina</text>
  <rect x="15" y="132" width="75" height="32" rx="4" stroke="#4ade80" stroke-width="1" stroke-dasharray="3"/>
  <text x="52" y="152" text-anchor="middle" font-family="Arial,sans-serif" font-size="9" fill="#4ade80">Specifiche</text>
  <rect x="100" y="132" width="75" height="32" rx="4" stroke="#60a5fa" stroke-width="1" stroke-dasharray="3"/>
  <text x="137" y="152" text-anchor="middle" font-family="Arial,sans-serif" font-size="9" fill="#60a5fa">Recensioni</text>
  <rect x="185" y="132" width="75" height="32" rx="4" stroke="#a78bfa" stroke-width="1" stroke-dasharray="3"/>
  <text x="222" y="152" text-anchor="middle" font-family="Arial,sans-serif" font-size="9" fill="#a78bfa">Prezzi</text>
  <rect x="270" y="132" width="75" height="32" rx="4" stroke="#f97316" stroke-width="1" stroke-dasharray="3"/>
  <text x="307" y="152" text-anchor="middle" font-family="Arial,sans-serif" font-size="9" fill="#f97316">Compatibilità</text>
  <rect x="355" y="132" width="55" height="32" rx="4" stroke="#ef4444" stroke-width="1" stroke-dasharray="3"/>
  <text x="382" y="152" text-anchor="middle" font-family="Arial,sans-serif" font-size="9" fill="#ef4444">Editoriale</text>
  <!-- Quality gate -->
  <rect x="100" y="180" width="220" height="30" rx="6" stroke="#ef4444" stroke-width="1.5"/>
  <text x="210" y="199" text-anchor="middle" font-family="Arial,sans-serif" font-size="10" font-weight="bold" fill="#ef4444">Quality Gate: minimo 70% di completezza dei dati</text>
  <defs>
    <marker id="arr1" markerWidth="6" markerHeight="6" refX="5" refY="3" orient="auto"><path d="M0,0 L6,3 L0,6" fill="#60a5fa"/></marker>
    <marker id="arr2" markerWidth="6" markerHeight="6" refX="5" refY="3" orient="auto"><path d="M0,0 L6,3 L0,6" fill="#4ade80"/></marker>
    <marker id="arr3" markerWidth="6" markerHeight="6" refX="5" refY="3" orient="auto"><path d="M0,0 L6,3 L0,6" fill="#f97316"/></marker>
  </defs>
</svg>