<svg viewBox="0 0 420 220" xmlns="http://www.w3.org/2000/svg" fill="none">
  <text x="210" y="18" text-anchor="middle" font-family="Arial,sans-serif" font-size="14" font-weight="bold" fill="#a78bfa">3-Click Electronics Site Hierarchy</text>
  <!-- Level 0: Homepage -->
  <rect x="170" y="32" width="80" height="28" rx="4" fill="#a78bfa" opacity="0.2" stroke="#a78bfa" stroke-width="1.5"/>
  <text x="210" y="50" text-anchor="middle" font-family="Arial,sans-serif" font-size="10" fill="#e2e8f0">Page d'accueil</text>
  <!-- Level 1: Departments -->
  <line x1="210" y1="60" x2="80" y2="80" stroke="#60a5fa" stroke-width="1"/>
  <line x1="210" y1="60" x2="210" y2="80" stroke="#60a5fa" stroke-width="1"/>
  <line x1="210" y1="60" x2="340" y2="80" stroke="#60a5fa" stroke-width="1"/>
  <rect x="30" y="80" width="100" height="24" rx="4" fill="#60a5fa" opacity="0.15" stroke="#60a5fa" stroke-width="1"/>
  <text x="80" y="96" text-anchor="middle" font-family="Arial,sans-serif" font-size="9" fill="#e2e8f0">Computers</text>
  <rect x="160" y="80" width="100" height="24" rx="4" fill="#60a5fa" opacity="0.15" stroke="#60a5fa" stroke-width="1"/>
  <text x="210" y="96" text-anchor="middle" font-family="Arial,sans-serif" font-size="9" fill="#e2e8f0">Monitors</text>
  <rect x="290" y="80" width="100" height="24" rx="4" fill="#60a5fa" opacity="0.15" stroke="#60a5fa" stroke-width="1"/>
  <text x="340" y="96" text-anchor="middle" font-family="Arial,sans-serif" font-size="9" fill="#e2e8f0">Audio</text>
  <!-- Level 2: Categories -->
  <line x1="80" y1="104" x2="40" y2="124" stroke="#4ade80" stroke-width="1"/>
  <line x1="80" y1="104" x2="120" y2="124" stroke="#4ade80" stroke-width="1"/>
  <rect x="5" y="124" width="70" height="24" rx="4" fill="#4ade80" opacity="0.12" stroke="#4ade80" stroke-width="1"/>
  <text x="40" y="140" text-anchor="middle" font-family="Arial,sans-serif" font-size="8" fill="#e2e8f0">Laptops</text>
  <rect x="85" y="124" width="70" height="24" rx="4" fill="#4ade80" opacity="0.12" stroke="#4ade80" stroke-width="1"/>
  <text x="120" y="140" text-anchor="middle" font-family="Arial,sans-serif" font-size="8" fill="#e2e8f0">Desktops</text>
  <line x1="210" y1="104" x2="185" y2="124" stroke="#4ade80" stroke-width="1"/>
  <line x1="210" y1="104" x2="240" y2="124" stroke="#4ade80" stroke-width="1"/>
  <rect x="155" y="124" width="60" height="24" rx="4" fill="#4ade80" opacity="0.12" stroke="#4ade80" stroke-width="1"/>
  <text x="185" y="140" text-anchor="middle" font-family="Arial,sans-serif" font-size="8" fill="#e2e8f0">4K IPS</text>
  <rect x="220" y="124" width="60" height="24" rx="4" fill="#4ade80" opacity="0.12" stroke="#4ade80" stroke-width="1"/>
  <text x="250" y="140" text-anchor="middle" font-family="Arial,sans-serif" font-size="8" fill="#e2e8f0">Ultrawide</text>
  <!-- Level 3: Products -->
  <line x1="40" y1="148" x2="25" y2="168" stroke="#f97316" stroke-width="1"/>
  <line x1="40" y1="148" x2="60" y2="168" stroke="#f97316" stroke-width="1"/>
  <rect x="5" y="168" width="40" height="20" rx="3" fill="#f97316" opacity="0.12" stroke="#f97316" stroke-width="1"/>
  <text x="25" y="181" text-anchor="middle" font-family="Arial,sans-serif" font-size="7" fill="#e2e8f0">SKU A</text>
  <rect x="50" y="168" width="40" height="20" rx="3" fill="#f97316" opacity="0.12" stroke="#f97316" stroke-width="1"/>
  <text x="70" y="181" text-anchor="middle" font-family="Arial,sans-serif" font-size="7" fill="#e2e8f0">SKU B</text>
  <!-- Labels -->
  <text x="400" y="50" text-anchor="end" font-family="Arial,sans-serif" font-size="8" fill="#a78bfa">Click 0</text>
  <text x="400" y="96" text-anchor="end" font-family="Arial,sans-serif" font-size="8" fill="#60a5fa">Click 1</text>
  <text x="400" y="140" text-anchor="end" font-family="Arial,sans-serif" font-size="8" fill="#4ade80">Click 2</text>
  <text x="400" y="181" text-anchor="end" font-family="Arial,sans-serif" font-size="8" fill="#f97316">Click 3</text>
  <!-- Ecosystem links -->
  <path d="M70,188 Q210,215 250,148" stroke="#a78bfa" stroke-width="1" stroke-dasharray="3,2" fill="none"/>
  <text x="210" y="210" text-anchor="middle" font-family="Arial,sans-serif" font-size="8" fill="#a78bfa">Ecosystem cross-links</text>
</svg>