<svg viewBox="0 0 680 310" xmlns="http://www.w3.org/2000/svg" fill="none">
  <text x="340" y="28" text-anchor="middle" font-family="Arial,sans-serif" font-size="14" font-weight="bold" fill="#a78bfa">Mapping Keywords to the Buyer Journey</text>
  <g transform="translate(30,55)">
    <rect x="0" y="0" width="145" height="200" rx="6" stroke="#60a5fa" stroke-width="1.5" fill="none"/>
    <text x="72" y="22" text-anchor="middle" font-family="Arial,sans-serif" font-size="11" font-weight="bold" fill="#60a5fa">Awareness</text>
    <text x="12" y="45" font-family="Arial,sans-serif" font-size="9" fill="#e2e8f0">"how to choose</text>
    <text x="12" y="57" font-family="Arial,sans-serif" font-size="9" fill="#e2e8f0">a mattress"</text>
    <line x1="15" y1="70" x2="130" y2="70" stroke="#60a5fa" stroke-width="0.5"/>
    <text x="12" y="88" font-family="Arial,sans-serif" font-size="9" fill="#e2e8f0">Page type:</text>
    <text x="12" y="103" font-family="Arial,sans-serif" font-size="9" font-weight="bold" fill="#60a5fa">Blog / Guide</text>
    <line x1="15" y1="115" x2="130" y2="115" stroke="#60a5fa" stroke-width="0.5"/>
    <text x="12" y="133" font-family="Arial,sans-serif" font-size="9" fill="#e2e8f0">Intent:</text>
    <text x="12" y="148" font-family="Arial,sans-serif" font-size="9" fill="#e2e8f0">Informational</text>
    <text x="72" y="185" text-anchor="middle" font-family="Arial,sans-serif" font-size="9" fill="#4ade80">Top of funnel</text>
  </g>
  <path d="M180,155 L195,145 L195,165 Z" fill="#e2e8f0"/>
  <g transform="translate(200,55)">
    <rect x="0" y="0" width="145" height="200" rx="6" stroke="#f97316" stroke-width="1.5" fill="none"/>
    <text x="72" y="22" text-anchor="middle" font-family="Arial,sans-serif" font-size="11" font-weight="bold" fill="#f97316">Consideration</text>
    <text x="12" y="45" font-family="Arial,sans-serif" font-size="9" fill="#e2e8f0">"memory foam vs</text>
    <text x="12" y="57" font-family="Arial,sans-serif" font-size="9" fill="#e2e8f0">hybrid mattress"</text>
    <line x1="15" y1="70" x2="130" y2="70" stroke="#f97316" stroke-width="0.5"/>
    <text x="12" y="88" font-family="Arial,sans-serif" font-size="9" fill="#e2e8f0">Page type:</text>
    <text x="12" y="103" font-family="Arial,sans-serif" font-size="9" font-weight="bold" fill="#f97316">Comparison /</text>
    <text x="12" y="115" font-family="Arial,sans-serif" font-size="9" font-weight="bold" fill="#f97316">Category</text>
    <line x1="15" y1="125" x2="130" y2="125" stroke="#f97316" stroke-width="0.5"/>
    <text x="12" y="143" font-family="Arial,sans-serif" font-size="9" fill="#e2e8f0">Intent:</text>
    <text x="12" y="158" font-family="Arial,sans-serif" font-size="9" fill="#e2e8f0">Commercial</text>
    <text x="72" y="185" text-anchor="middle" font-family="Arial,sans-serif" font-size="9" fill="#4ade80">Mid funnel</text>
  </g>
  <path d="M350,155 L365,145 L365,165 Z" fill="#e2e8f0"/>
  <g transform="translate(370,55)">
    <rect x="0" y="0" width="145" height="200" rx="6" stroke="#4ade80" stroke-width="1.5" fill="none"/>
    <text x="72" y="22" text-anchor="middle" font-family="Arial,sans-serif" font-size="11" font-weight="bold" fill="#4ade80">Decision</text>
    <text x="12" y="45" font-family="Arial,sans-serif" font-size="9" fill="#e2e8f0">"buy memory foam</text>
    <text x="12" y="57" font-family="Arial,sans-serif" font-size="9" fill="#e2e8f0">mattress queen"</text>
    <line x1="15" y1="70" x2="130" y2="70" stroke="#4ade80" stroke-width="0.5"/>
    <text x="12" y="88" font-family="Arial,sans-serif" font-size="9" fill="#e2e8f0">Page type:</text>
    <text x="12" y="103" font-family="Arial,sans-serif" font-size="9" font-weight="bold" fill="#4ade80">Product /</text>
    <text x="12" y="115" font-family="Arial,sans-serif" font-size="9" font-weight="bold" fill="#4ade80">Category</text>
    <line x1="15" y1="125" x2="130" y2="125" stroke="#4ade80" stroke-width="0.5"/>
    <text x="12" y="143" font-family="Arial,sans-serif" font-size="9" fill="#e2e8f0">Intent:</text>
    <text x="12" y="158" font-family="Arial,sans-serif" font-size="9" fill="#e2e8f0">Transactional</text>
    <text x="72" y="185" text-anchor="middle" font-family="Arial,sans-serif" font-size="9" fill="#4ade80">Bottom funnel</text>
  </g>
  <path d="M520,155 L535,145 L535,165 Z" fill="#e2e8f0"/>
  <g transform="translate(540,55)">
    <rect x="0" y="0" width="115" height="200" rx="6" stroke="#a78bfa" stroke-width="1.5" fill="none"/>
    <text x="57" y="22" text-anchor="middle" font-family="Arial,sans-serif" font-size="11" font-weight="bold" fill="#a78bfa">Retention</text>
    <text x="12" y="45" font-family="Arial,sans-serif" font-size="9" fill="#e2e8f0">"mattress care</text>
    <text x="12" y="57" font-family="Arial,sans-serif" font-size="9" fill="#e2e8f0">tips"</text>
    <line x1="15" y1="70" x2="100" y2="70" stroke="#a78bfa" stroke-width="0.5"/>
    <text x="12" y="88" font-family="Arial,sans-serif" font-size="9" fill="#e2e8f0">Page type:</text>
    <text x="12" y="103" font-family="Arial,sans-serif" font-size="9" font-weight="bold" fill="#a78bfa">Blog / FAQ</text>
    <line x1="15" y1="115" x2="100" y2="115" stroke="#a78bfa" stroke-width="0.5"/>
    <text x="12" y="133" font-family="Arial,sans-serif" font-size="9" fill="#e2e8f0">Intent:</text>
    <text x="12" y="148" font-family="Arial,sans-serif" font-size="9" fill="#e2e8f0">Informational</text>
    <text x="57" y="185" text-anchor="middle" font-family="Arial,sans-serif" font-size="9" fill="#4ade80">Post-purchase</text>
  </g>
  <text x="340" y="290" text-anchor="middle" font-family="Arial,sans-serif" font-size="10" fill="#e2e8f0">Group keywords by topic cluster with category page as hub, content as spokes</text>
</svg>