<svg xmlns="http://www.w3.org/2000/svg" viewBox="0 0 220 60" fill="none">
  <!-- Shopify bag icon -->
  <g transform="translate(28, 8) scale(0.38)">
    <path d="M96.3 24.9c-.1-.6-.6-1-1.1-1-.5 0-10.2-.2-10.2-.2s-6.8-6.6-7.5-7.3c-.7-.7-2.1-.5-2.6-.3-.1 0-1.4.4-3.6 1.1-2.2-6.2-6-12-12.7-12C58.4 4.7 57.8 4 57.1 3.6 54 1.8 51.4 1 49.2 1 33.8 1 26.6 20.2 24.3 30.4c-6 1.9-10.3 3.2-10.8 3.3-3.4 1-3.5 1.1-3.9 4.3C9.3 40.5 0 112.5 0 112.5l75.3 13.1L106 116s-9.6-64.7-9.7-65.1zM67.2 18.4l-5.8 1.8c0-3.2-.4-7.8-1.9-11.7 4.7.9 7 6.2 7.7 9.9zm-9.7 3l-12.5 3.9c1.2-4.7 3.5-9.4 6.3-12.5 1.1-1.1 2.5-2.4 4.2-3.1 1.7 3.5 2.1 8.4 2 11.7zm-8-15.9c1.4 0 2.5.3 3.5.8-1.6.8-3.1 2.1-4.5 3.6-3.7 4.1-6.6 10.5-7.8 16.7l-9.8 3C32.8 19.1 39.4 5.5 49.5 5.5z" fill="#95BF47"/>
    <path d="M95.2 23.9c-.5 0-10.2-.2-10.2-.2s-6.8-6.6-7.5-7.3c-.3-.3-.6-.4-1-.4l-1.2 93.5 30.7-6.6S96.3 24.9 96.3 24.9c-.1-.6-.6-1-1.1-1z" fill="#5E8E3E"/>
    <path d="M58 39.9l-4.8 14.3s-4.2-2.2-9.3-2.2c-7.5 0-7.9 4.7-7.9 5.9 0 6.5 16.9 9 16.9 24.2 0 12-7.6 19.7-17.8 19.7-12.3 0-18.6-7.6-18.6-7.6l3.3-10.9s6.5 5.6 12 5.6c3.6 0 5.1-2.8 5.1-4.9 0-8.5-13.8-8.9-13.8-22.8C23.1 49.3 32 36 47.6 36c6 0 10.4 2 10.4 2V39.9z" fill="#fff"/>
  </g>
  <!-- Text -->
  <text x="68" y="32" font-family="system-ui, -apple-system, sans-serif" font-size="15" font-weight="600" fill="#5E8E3E">shopify</text>
  <text x="68" y="48" font-family="system-ui, -apple-system, sans-serif" font-size="13" font-weight="400" fill="#5E8E3E" letter-spacing="1">partners</text>
</svg>