<svg xmlns="http://www.w3.org/2000/svg" viewBox="0 0 520 80" fill="none">
  <!-- Shopping bag icon -->
  <g transform="translate(0, 8) scale(0.52)">
    <!-- Bag body -->
    <path d="M33.3 14.5c-.5-.5-1.2-.8-1.9-.8h-3.8l-.2-1.4C26.8 5.6 22.4 0 16.6 0c-.2 0-.3 0-.5 0C14.8-1.2 13.2-1.5 11.8-1.5 3.5-1.5 0 8.5 0 8.5l10.5 3.5c0 0 .1-3.5 3-3.5 1.8 0 2.2 1.2 2.3 2.5l.5 3.5H8.8L3 78h32l8.3-60.5c.1-.7-.1-1.5-.6-2z" fill="white" transform="translate(10,10) scale(1.1)"/>
    <!-- Bag handle -->
    <path d="M22.5 28l-2 12s-2.5-1.2-5.5-1.2c-4.5 0-4.7 2.8-4.7 3.5 0 3.9 10.1 5.4 10.1 14.4 0 7.1-4.5 11.7-10.6 11.7-7.3 0-11.1-4.6-11.1-4.6l2-6.5s3.8 3.3 7.1 3.3c2.1 0 3-1.7 3-2.9 0-5.1-8.3-5.3-8.3-13.6C2.5 37.1 7.5 30 17.7 30c3.9 0 4.8.9 4.8.9z" fill="white" transform="translate(15,10) scale(1.1)"/>
    <!-- S letter on bag -->
    <text x="28" y="58" font-family="Arial, sans-serif" font-size="36" font-weight="700" fill="white" text-anchor="middle">S</text>
  </g>
  <!-- shopify text - italic bold -->
  <text x="52" y="52" font-family="'Helvetica Neue', Helvetica, Arial, sans-serif" font-size="42" font-weight="700" fill="white" font-style="italic" letter-spacing="-0.5">shopify</text>
  <!-- partners text - italic light -->
  <text x="248" y="52" font-family="'Helvetica Neue', Helvetica, Arial, sans-serif" font-size="42" font-weight="300" fill="white" font-style="italic" letter-spacing="-0.5">partners</text>
</svg>