<svg xmlns="http://www.w3.org/2000/svg" viewBox="0 0 446 72" fill="none">
  <!-- Shopify bag icon - official shape -->
  <g transform="translate(0,2) scale(0.85)">
    <path fill="white" d="M36.4 7.2c0-.1-.1-.2-.3-.2s-3.4-.2-3.4-.2-2.3-2.2-2.5-2.5c-.1-.1-.2-.1-.3-.1l-1.2 26.8L36 28.3s.5-.2.5-.4c0-.3-7.3-4.4-7.3-4.4s-.5-3.4-.5-4.4c0-1 .3-1.3.6-1.3.6 0 1.1.8 1.1.8s1.5-3.5 1.5-5.8c0-1.9-.9-2.7-.9-2.7l5.4-2.9z"/>
    <path fill="white" d="M35.3 6.8s-.9.3-2.3.7c-.3-.8-.6-1.8-1.1-2.7C30.5 2.3 28.7 1 26.6 1c-.1 0-.2 0-.3 0C26 .6 25.6.4 25.2.4c-4.2 0-6.3 5.3-6.9 8l-5.7 1.8c-1.7.5-1.8.6-2 2.2L8 56.3l24.6 4.3 2.7-53.8zM24.7 11l-4.4 1.4c.8-3.2 2.4-4.7 3.9-5.3.4 1 .6 2.3.5 3.9zm-3-7.1c.3 0 .5.1.8.2-1.9.9-3.9 3.1-4.8 7.5l-3.5 1.1C15.3 8.3 18 3.9 21.7 3.9zm.8 15.1s-1.5-.8-3.4-.8c-2.8 0-2.9 1.7-2.9 2.2 0 2.4 6.2 3.3 6.2 8.9 0 4.4-2.8 7.3-6.5 7.3-4.5 0-6.8-2.8-6.8-2.8l1.2-4s2.4 2 4.3 2c1.3 0 1.8-1 1.8-1.8 0-3.1-5.1-3.2-5.1-8.3 0-4.3 3.1-8.5 9.3-8.5 2.4 0 3.6.7 3.6.7l-1.7 5.1z"/>
    <path fill="white" d="M28.3 3.7c1.1.2 1.8 1.3 2.2 2.7.3.9.5 1.9.5 1.9l-5.3 1.6c.7-2.8 2-4.3 2.6-6.2z"/>
  </g>
  <!-- "shopify" text - bold italic -->
  <text x="56" y="48" font-family="'Myriad Pro', 'Helvetica Neue', Helvetica, Arial, sans-serif" font-size="36" font-weight="700" fill="white" font-style="italic" letter-spacing="-0.3">shopify</text>
  <!-- "partners" text - light italic -->
  <text x="228" y="48" font-family="'Myriad Pro', 'Helvetica Neue', Helvetica, Arial, sans-serif" font-size="36" font-weight="300" fill="white" font-style="italic" letter-spacing="-0.3">partners</text>
</svg>