<svg xmlns="http://www.w3.org/2000/svg" viewBox="0 0 400 140" fill="none">
  <!-- Shopping bag -->
  <g transform="translate(30, 18) scale(0.8)">
    <path d="M83.3 24.5c-.1-.8-.7-1.4-1.4-1.5-.7 0-12.6-.2-12.6-.2s-9.3-9-10.4-10c-.3-.3-.6-.4-1-.5l-4.4 96.5 38-8.2S83.5 25.4 83.3 24.5z" fill="#5E8E3E"/>
    <path d="M57.8 38.4l-5.3 15.8s-5.8-2.7-12.7-2.7c-10.3 0-10.8 6.5-10.8 8.1 0 8.9 23.2 12.3 23.2 33.1 0 16.4-10.4 26.9-24.4 26.9-16.8 0-25.4-10.5-25.4-10.5l4.5-14.9s8.8 7.6 16.3 7.6c4.9 0 6.9-3.9 6.9-6.7 0-11.7-19-12.2-19-31.2 0-16 11.5-31.6 34.9-31.6 9 0 11.8 2.1 11.8 2.1z" fill="#fff"/>
    <path d="M57 8.1c-.3 0-.5.1-.7.2-1.4.4-4.5 1.4-7.5 2.3C46.4 3.5 42.1.1 37.5.1 37.4 0 37.2 0 37 0c-1-.9-2.2-1.3-3.3-1.3C23.3-1.3 18 18.5 16.3 27.5l-11.9 3.7c-3.7 1.1-3.8 1.2-4.3 4.7L0 112.4l63.1 11.8-5.3-96.3c-.1-.2-.4-.3-.8-.3zM44.8 13.3l-5.7 1.8c0-4.2-.6-10.1-2.5-15.2 6.2 1.2 9.3 8.1 8.2 13.4zM34.1 17l-13.8 4.3c1.3-5.2 3.9-10.4 7-13.8 1.1-1.2 2.8-2.6 4.6-3.4 2.4 4.6 2.3 11.2 2.2 12.9zM27.7-1.2c1.5 0 2.8.5 3.8 1.4-1.7 0.8-3.4 2.3-5 3.9-4.1 4.5-7.3 11.5-8.5 18.3l-10.8 3.3C9.8 14.2 17.7 0 27.7-1.2z" fill="#95BF47"/>
  </g>
  <!-- shopify text -->
  <text x="115" y="78" font-family="'Helvetica Neue', Helvetica, Arial, sans-serif" font-size="44" font-weight="700" fill="#000" letter-spacing="-0.5">shopify</text>
  <!-- partner text -->
  <text x="115" y="118" font-family="'Helvetica Neue', Helvetica, Arial, sans-serif" font-size="30" font-weight="400" fill="#000" letter-spacing="1">partner</text>
</svg>