<svg xmlns="http://www.w3.org/2000/svg" viewBox="0 0 400 400" fill="none">
  <!-- Outer scalloped circle -->
  <g transform="translate(200,200)">
    <!-- Scalloped border -->
    <path d="M0,-190 C15,-190 25,-185 30,-175 C35,-185 45,-190 60,-190 C75,-190 85,-185 90,-175 C95,-185 105,-190 120,-190 C135,-190 145,-185 150,-175 C155,-185 165,-190 175,-175 C185,-160 190,-145 175,-135 C190,-125 195,-110 185,-95 C195,-80 190,-65 175,-55 C190,-45 190,-25 180,-15 C190,0 190,15 180,25 C190,40 190,55 175,65 C190,75 190,95 180,105 C190,115 185,135 175,140 C185,155 180,170 165,175 C175,190 165,195 150,190 C155,200 145,210 130,205 C135,215 125,225 110,220 C110,230 100,240 85,230 C80,240 70,245 55,235 C50,245 35,245 25,240 C15,250 0,250 -10,240 C-20,250 -35,245 -45,235 C-55,245 -70,240 -75,230 C-85,240 -100,235 -105,220 C-115,225 -130,220 -130,205 C-140,210 -155,200 -150,190 C-165,195 -175,185 -175,170 C-185,170 -190,155 -180,145 C-190,135 -190,120 -180,110 C-190,100 -190,80 -180,70 C-190,60 -190,40 -180,30 C-190,20 -190,0 -180,-10 C-190,-25 -190,-40 -175,-50 C-190,-65 -190,-80 -175,-90 C-185,-105 -185,-120 -175,-130 C-185,-145 -180,-160 -170,-170 C-175,-185 -165,-190 -150,-190 C-155,-195 -140,-200 -130,-190 C-130,-200 -115,-200 -105,-195 C-100,-200 -90,-200 -80,-195 C-75,-200 -60,-200 -50,-195 C-40,-200 -25,-200 -15,-195 C-5,-200 5,-200 0,-190 Z" fill="none" stroke="#7B2D9E" stroke-width="12"/>
  </g>
  <!-- Inner circle -->
  <circle cx="200" cy="200" r="155" fill="white" stroke="#7B2D9E" stroke-width="4"/>
  <!-- VERIFIED text -->
  <text x="200" y="120" text-anchor="middle" font-family="'Helvetica Neue', Arial, sans-serif" font-size="24" font-weight="700" fill="#7B2D9E" letter-spacing="6">VERIFIED</text>
  <!-- WOO speech bubble -->
  <g transform="translate(200,200)">
    <!-- Bubble -->
    <rect x="-65" y="-50" width="130" height="70" rx="12" fill="#7B2D9E"/>
    <!-- Bubble tail -->
    <path d="M-10,20 L0,40 L10,20" fill="#7B2D9E"/>
    <!-- WOO text -->
    <text x="0" y="-5" text-anchor="middle" font-family="'Helvetica Neue', Arial, sans-serif" font-size="40" font-weight="800" fill="white">WOO</text>
  </g>
  <!-- WOOEXPERT text -->
  <text x="200" y="290" text-anchor="middle" font-family="'Helvetica Neue', Arial, sans-serif" font-size="22" font-weight="700" fill="#7B2D9E" letter-spacing="3">WOOEXPERT</text>
  <!-- woocommerce.com text -->
  <text x="200" y="320" text-anchor="middle" font-family="'Helvetica Neue', Arial, sans-serif" font-size="14" font-weight="400" fill="#7B2D9E" letter-spacing="1">WOOCOMMERCE.COM</text>
</svg>