<svg viewBox="0 0 420 230" xmlns="http://www.w3.org/2000/svg" fill="none">
  <text x="210" y="22" text-anchor="middle" font-family="Arial,sans-serif" font-size="14" font-weight="bold" fill="#a78bfa">Embudo de eventos de comercio electrónico GA4</text>
  <g transform="translate(60,40)">
    <polygon points="0,0 300,0 270,38 30,38" fill="#a78bfa" fill-opacity="0.15" stroke="#a78bfa" stroke-width="1"/>
    <text x="150" y="15" text-anchor="middle" font-family="Arial,sans-serif" font-size="11" font-weight="bold" fill="#a78bfa">inicio_sesión</text>
    <text x="150" y="30" text-anchor="middle" font-family="Arial,sans-serif" font-size="9" fill="#e2e8f0">100% de visitantes orgánicos</text>
  </g>
  <g transform="translate(75,84)">
    <polygon points="0,0 270,0 245,38 25,38" fill="#60a5fa" fill-opacity="0.15" stroke="#60a5fa" stroke-width="1"/>
    <text x="135" y="15" text-anchor="middle" font-family="Arial,sans-serif" font-size="11" font-weight="bold" fill="#60a5fa">ver_elemento</text>
    <text x="135" y="30" text-anchor="middle" font-family="Arial,sans-serif" font-size="9" fill="#e2e8f0">~40% ve un producto</text>
  </g>
  <g transform="translate(90,128)">
    <polygon points="0,0 240,0 220,38 20,38" fill="#4ade80" fill-opacity="0.15" stroke="#4ade80" stroke-width="1"/>
    <text x="120" y="15" text-anchor="middle" font-family="Arial,sans-serif" font-size="11" font-weight="bold" fill="#4ade80">añadir a la cesta</text>
    <text x="120" y="30" text-anchor="middle" font-family="Arial,sans-serif" font-size="9" fill="#e2e8f0">~8% agregar al carrito</text>
  </g>
  <g transform="translate(105,172)">
    <polygon points="0,0 210,0 195,38 15,38" fill="#f97316" fill-opacity="0.15" stroke="#f97316" stroke-width="1"/>
    <text x="105" y="15" text-anchor="middle" font-family="Arial,sans-serif" font-size="11" font-weight="bold" fill="#f97316">comenzar_pagar</text>
    <text x="105" y="30" text-anchor="middle" font-family="Arial,sans-serif" font-size="9" fill="#e2e8f0">~5% comienza el pago</text>
  </g>
  <rect x="135" y="218" width="150" height="10" rx="5" fill="#4ade80" fill-opacity="0.3" stroke="#4ade80" stroke-width="1"/>
  <text x="210" y="226" text-anchor="middle" font-family="Arial,sans-serif" font-size="9" font-weight="bold" fill="#4ade80">compra ~2-3%</text>
</svg>