<svg viewBox="0 0 680 300" xmlns="http://www.w3.org/2000/svg" fill="none">
  <text x="340" y="28" text-anchor="middle" font-family="Arial,sans-serif" font-size="14" font-weight="bold" fill="#a78bfa">Category Page Internal Linking Structure</text>
  <rect x="250" y="50" width="180" height="38" rx="6" stroke="#a78bfa" stroke-width="2" fill="none"/>
  <text x="340" y="74" text-anchor="middle" font-family="Arial,sans-serif" font-size="12" font-weight="bold" fill="#a78bfa">Homepage</text>
  <line x1="340" y1="88" x2="340" y2="110" stroke="#a78bfa" stroke-width="1.5" stroke-dasharray="4"/>
  <rect x="100" y="110" width="160" height="34" rx="6" stroke="#60a5fa" stroke-width="1.5" fill="none"/>
  <text x="180" y="132" text-anchor="middle" font-family="Arial,sans-serif" font-size="11" font-weight="bold" fill="#60a5fa">Parent Category</text>
  <rect x="420" y="110" width="160" height="34" rx="6" stroke="#60a5fa" stroke-width="1.5" fill="none"/>
  <text x="500" y="132" text-anchor="middle" font-family="Arial,sans-serif" font-size="11" font-weight="bold" fill="#60a5fa">Parent Category</text>
  <line x1="260" y1="118" x2="180" y2="118" stroke="#a78bfa" stroke-width="1" stroke-dasharray="4"/>
  <line x1="420" y1="118" x2="500" y2="118" stroke="#a78bfa" stroke-width="1" stroke-dasharray="4"/>
  <line x1="130" y1="144" x2="80" y2="170" stroke="#60a5fa" stroke-width="1" stroke-dasharray="4"/>
  <line x1="230" y1="144" x2="240" y2="170" stroke="#60a5fa" stroke-width="1" stroke-dasharray="4"/>
  <rect x="20" y="170" width="130" height="30" rx="5" stroke="#f97316" stroke-width="1.5" fill="none"/>
  <text x="85" y="190" text-anchor="middle" font-family="Arial,sans-serif" font-size="10" font-weight="bold" fill="#f97316">Subcategory A</text>
  <rect x="170" y="170" width="130" height="30" rx="5" stroke="#f97316" stroke-width="1.5" fill="none"/>
  <text x="235" y="190" text-anchor="middle" font-family="Arial,sans-serif" font-size="10" font-weight="bold" fill="#f97316">Subcategory B</text>
  <line x1="150" y1="185" x2="170" y2="185" stroke="#4ade80" stroke-width="1.5"/>
  <polygon points="168,182 174,185 168,188" fill="#4ade80"/>
  <line x1="85" y1="200" x2="85" y2="225" stroke="#f97316" stroke-width="1" stroke-dasharray="4"/>
  <line x1="235" y1="200" x2="235" y2="225" stroke="#f97316" stroke-width="1" stroke-dasharray="4"/>
  <text x="85" y="240" text-anchor="middle" font-family="Arial,sans-serif" font-size="10" fill="#e2e8f0">Products</text>
  <text x="235" y="240" text-anchor="middle" font-family="Arial,sans-serif" font-size="10" fill="#e2e8f0">Products</text>
  <rect x="400" y="170" width="240" height="70" rx="6" stroke="#4ade80" stroke-width="1.5" fill="none"/>
  <text x="520" y="192" text-anchor="middle" font-family="Arial,sans-serif" font-size="11" font-weight="bold" fill="#4ade80">Link Types</text>
  <text x="520" y="210" text-anchor="middle" font-family="Arial,sans-serif" font-size="10" fill="#e2e8f0">Breadcrumbs (up), sibling links (across)</text>
  <text x="520" y="226" text-anchor="middle" font-family="Arial,sans-serif" font-size="10" fill="#e2e8f0">Related categories, product links (down)</text>
  <line x1="20" y1="264" x2="660" y2="264" stroke="#a78bfa" stroke-width="1" stroke-dasharray="4"/>
  <text x="340" y="286" text-anchor="middle" font-family="Arial,sans-serif" font-size="11" fill="#a78bfa">Link in all directions: up via breadcrumbs, across to siblings, down to products</text>
</svg>