<svg viewBox="0 0 680 320" xmlns="http://www.w3.org/2000/svg" fill="none">
  <text x="340" y="28" text-anchor="middle" font-family="Arial,sans-serif" font-size="14" font-weight="bold" fill="#a78bfa">7-Step Ecommerce SEO Audit Process</text>
  <g transform="translate(30,55)">
    <rect x="0" y="0" width="82" height="70" rx="6" stroke="#ef4444" stroke-width="1.5" fill="none"/>
    <text x="41" y="20" text-anchor="middle" font-family="Arial,sans-serif" font-size="18" font-weight="bold" fill="#ef4444">1</text>
    <text x="41" y="38" text-anchor="middle" font-family="Arial,sans-serif" font-size="9" fill="#e2e8f0">Crawlability</text>
    <text x="41" y="50" text-anchor="middle" font-family="Arial,sans-serif" font-size="9" fill="#e2e8f0">&amp; Indexation</text>
    <text x="41" y="64" text-anchor="middle" font-family="Arial,sans-serif" font-size="8" fill="#ef4444">Critical</text>
  </g>
  <path d="M117,90 L127,85 L127,95 Z" fill="#e2e8f0"/>
  <g transform="translate(132,55)">
    <rect x="0" y="0" width="72" height="70" rx="6" stroke="#f97316" stroke-width="1.5" fill="none"/>
    <text x="36" y="20" text-anchor="middle" font-family="Arial,sans-serif" font-size="18" font-weight="bold" fill="#f97316">2</text>
    <text x="36" y="38" text-anchor="middle" font-family="Arial,sans-serif" font-size="9" fill="#e2e8f0">Site Speed</text>
    <text x="36" y="50" text-anchor="middle" font-family="Arial,sans-serif" font-size="9" fill="#e2e8f0">&amp; CWV</text>
    <text x="36" y="64" text-anchor="middle" font-family="Arial,sans-serif" font-size="8" fill="#f97316">High</text>
  </g>
  <path d="M209,90 L219,85 L219,95 Z" fill="#e2e8f0"/>
  <g transform="translate(224,55)">
    <rect x="0" y="0" width="72" height="70" rx="6" stroke="#f97316" stroke-width="1.5" fill="none"/>
    <text x="36" y="20" text-anchor="middle" font-family="Arial,sans-serif" font-size="18" font-weight="bold" fill="#f97316">3</text>
    <text x="36" y="38" text-anchor="middle" font-family="Arial,sans-serif" font-size="9" fill="#e2e8f0">Mobile</text>
    <text x="36" y="50" text-anchor="middle" font-family="Arial,sans-serif" font-size="9" fill="#e2e8f0">Experience</text>
    <text x="36" y="64" text-anchor="middle" font-family="Arial,sans-serif" font-size="8" fill="#f97316">High</text>
  </g>
  <path d="M301,90 L311,85 L311,95 Z" fill="#e2e8f0"/>
  <g transform="translate(316,55)">
    <rect x="0" y="0" width="72" height="70" rx="6" stroke="#60a5fa" stroke-width="1.5" fill="none"/>
    <text x="36" y="20" text-anchor="middle" font-family="Arial,sans-serif" font-size="18" font-weight="bold" fill="#60a5fa">4</text>
    <text x="36" y="38" text-anchor="middle" font-family="Arial,sans-serif" font-size="9" fill="#e2e8f0">On-Page</text>
    <text x="36" y="50" text-anchor="middle" font-family="Arial,sans-serif" font-size="9" fill="#e2e8f0">Elements</text>
    <text x="36" y="64" text-anchor="middle" font-family="Arial,sans-serif" font-size="8" fill="#60a5fa">Medium</text>
  </g>
  <path d="M393,90 L403,85 L403,95 Z" fill="#e2e8f0"/>
  <g transform="translate(408,55)">
    <rect x="0" y="0" width="72" height="70" rx="6" stroke="#60a5fa" stroke-width="1.5" fill="none"/>
    <text x="36" y="20" text-anchor="middle" font-family="Arial,sans-serif" font-size="18" font-weight="bold" fill="#60a5fa">5</text>
    <text x="36" y="38" text-anchor="middle" font-family="Arial,sans-serif" font-size="9" fill="#e2e8f0">Content</text>
    <text x="36" y="50" text-anchor="middle" font-family="Arial,sans-serif" font-size="9" fill="#e2e8f0">Quality</text>
    <text x="36" y="64" text-anchor="middle" font-family="Arial,sans-serif" font-size="8" fill="#60a5fa">Medium</text>
  </g>
  <path d="M485,90 L495,85 L495,95 Z" fill="#e2e8f0"/>
  <g transform="translate(500,55)">
    <rect x="0" y="0" width="72" height="70" rx="6" stroke="#4ade80" stroke-width="1.5" fill="none"/>
    <text x="36" y="20" text-anchor="middle" font-family="Arial,sans-serif" font-size="18" font-weight="bold" fill="#4ade80">6</text>
    <text x="36" y="38" text-anchor="middle" font-family="Arial,sans-serif" font-size="9" fill="#e2e8f0">Backlink</text>
    <text x="36" y="50" text-anchor="middle" font-family="Arial,sans-serif" font-size="9" fill="#e2e8f0">Profile</text>
    <text x="36" y="64" text-anchor="middle" font-family="Arial,sans-serif" font-size="8" fill="#4ade80">Ongoing</text>
  </g>
  <path d="M577,90 L587,85 L587,95 Z" fill="#e2e8f0"/>
  <g transform="translate(592,55)">
    <rect x="0" y="0" width="72" height="70" rx="6" stroke="#a78bfa" stroke-width="1.5" fill="none"/>
    <text x="36" y="20" text-anchor="middle" font-family="Arial,sans-serif" font-size="18" font-weight="bold" fill="#a78bfa">7</text>
    <text x="36" y="38" text-anchor="middle" font-family="Arial,sans-serif" font-size="9" fill="#e2e8f0">Structured</text>
    <text x="36" y="50" text-anchor="middle" font-family="Arial,sans-serif" font-size="9" fill="#e2e8f0">Data</text>
    <text x="36" y="64" text-anchor="middle" font-family="Arial,sans-serif" font-size="8" fill="#a78bfa">Enhance</text>
  </g>
  <g transform="translate(40,160)">
    <text x="0" y="0" font-family="Arial,sans-serif" font-size="11" font-weight="bold" fill="#e2e8f0">Prioritization after audit:</text>
    <rect x="0" y="15" width="600" height="24" rx="4" stroke="#ef4444" stroke-width="1" fill="none"/>
    <text x="10" y="32" font-family="Arial,sans-serif" font-size="10" fill="#ef4444">High Impact + Low Effort = Fix first</text>
    <text x="350" y="32" font-family="Arial,sans-serif" font-size="10" fill="#e2e8f0">Crawl issues, speed, canonicals</text>
    <rect x="0" y="47" width="420" height="24" rx="4" stroke="#f97316" stroke-width="1" fill="none"/>
    <text x="10" y="64" font-family="Arial,sans-serif" font-size="10" fill="#f97316">High Impact + Moderate Effort</text>
    <text x="310" y="64" font-family="Arial,sans-serif" font-size="10" fill="#e2e8f0">On-page, category content</text>
    <rect x="0" y="79" width="280" height="24" rx="4" stroke="#60a5fa" stroke-width="1" fill="none"/>
    <text x="10" y="96" font-family="Arial,sans-serif" font-size="10" fill="#60a5fa">Moderate Impact + Ongoing</text>
    <text x="240" y="96" font-family="Arial,sans-serif" font-size="10" fill="#e2e8f0">Links, content</text>
  </g>
  <text x="340" y="300" text-anchor="middle" font-family="Arial,sans-serif" font-size="10" fill="#e2e8f0">Budget 2 full days for a store with 5,000+ pages. Repeat every 6 months.</text>
</svg>