<svg viewBox="0 0 680 310" xmlns="http://www.w3.org/2000/svg" fill="none">
  <text x="340" y="28" text-anchor="middle" font-family="Arial,sans-serif" font-size="14" font-weight="bold" fill="#a78bfa">Ecommerce SEO Checklist -- 7 Categories</text>
  <g transform="translate(40,55)">
    <rect x="0" y="0" width="290" height="30" rx="4" stroke="#4ade80" stroke-width="1.5" fill="none"/>
    <rect x="0" y="0" width="290" height="30" rx="4" fill="#4ade80" opacity="0.1"/>
    <text x="15" y="20" font-family="Arial,sans-serif" font-size="11" font-weight="bold" fill="#4ade80">1. Technical Setup</text>
    <text x="220" y="20" font-family="Arial,sans-serif" font-size="10" fill="#e2e8f0">7 items</text>
  </g>
  <g transform="translate(40,93)">
    <rect x="0" y="0" width="260" height="30" rx="4" stroke="#60a5fa" stroke-width="1.5" fill="none"/>
    <rect x="0" y="0" width="260" height="30" rx="4" fill="#60a5fa" opacity="0.1"/>
    <text x="15" y="20" font-family="Arial,sans-serif" font-size="11" font-weight="bold" fill="#60a5fa">2. On-Page Elements</text>
    <text x="200" y="20" font-family="Arial,sans-serif" font-size="10" fill="#e2e8f0">6 items</text>
  </g>
  <g transform="translate(40,131)">
    <rect x="0" y="0" width="250" height="30" rx="4" stroke="#f97316" stroke-width="1.5" fill="none"/>
    <rect x="0" y="0" width="250" height="30" rx="4" fill="#f97316" opacity="0.1"/>
    <text x="15" y="20" font-family="Arial,sans-serif" font-size="11" font-weight="bold" fill="#f97316">3. Product Pages</text>
    <text x="190" y="20" font-family="Arial,sans-serif" font-size="10" fill="#e2e8f0">6 items</text>
  </g>
  <g transform="translate(40,169)">
    <rect x="0" y="0" width="240" height="30" rx="4" stroke="#a78bfa" stroke-width="1.5" fill="none"/>
    <rect x="0" y="0" width="240" height="30" rx="4" fill="#a78bfa" opacity="0.1"/>
    <text x="15" y="20" font-family="Arial,sans-serif" font-size="11" font-weight="bold" fill="#a78bfa">4. Category Pages</text>
    <text x="180" y="20" font-family="Arial,sans-serif" font-size="10" fill="#e2e8f0">5 items</text>
  </g>
  <g transform="translate(40,207)">
    <rect x="0" y="0" width="230" height="30" rx="4" stroke="#4ade80" stroke-width="1.5" fill="none"/>
    <rect x="0" y="0" width="230" height="30" rx="4" fill="#4ade80" opacity="0.1"/>
    <text x="15" y="20" font-family="Arial,sans-serif" font-size="11" font-weight="bold" fill="#4ade80">5. Content & Blog</text>
    <text x="170" y="20" font-family="Arial,sans-serif" font-size="10" fill="#e2e8f0">5 items</text>
  </g>
  <g transform="translate(40,245)">
    <rect x="0" y="0" width="220" height="30" rx="4" stroke="#60a5fa" stroke-width="1.5" fill="none"/>
    <rect x="0" y="0" width="220" height="30" rx="4" fill="#60a5fa" opacity="0.1"/>
    <text x="15" y="20" font-family="Arial,sans-serif" font-size="11" font-weight="bold" fill="#60a5fa">6. Off-Page & Links</text>
    <text x="170" y="20" font-family="Arial,sans-serif" font-size="10" fill="#e2e8f0">5 items</text>
  </g>
  <g transform="translate(350,55)">
    <rect x="0" y="0" width="290" height="220" rx="8" stroke="#a78bfa" stroke-width="1.5" fill="none"/>
    <text x="145" y="25" text-anchor="middle" font-family="Arial,sans-serif" font-size="12" font-weight="bold" fill="#a78bfa">7. Analytics & Tracking</text>
    <text x="20" y="55" font-family="Arial,sans-serif" font-size="10" fill="#e2e8f0">GA4 ecommerce tracking</text>
    <text x="20" y="78" font-family="Arial,sans-serif" font-size="10" fill="#e2e8f0">Search Console monitoring</text>
    <text x="20" y="101" font-family="Arial,sans-serif" font-size="10" fill="#e2e8f0">Rank tracking (50-100 KWs)</text>
    <text x="20" y="124" font-family="Arial,sans-serif" font-size="10" fill="#e2e8f0">Custom dashboards</text>
    <text x="20" y="147" font-family="Arial,sans-serif" font-size="10" fill="#e2e8f0">Micro-conversion tracking</text>
    <line x1="20" y1="165" x2="270" y2="165" stroke="#a78bfa" stroke-width="0.5"/>
    <text x="145" y="190" text-anchor="middle" font-family="Arial,sans-serif" font-size="10" fill="#4ade80">Without tracking, your</text>
    <text x="145" y="205" text-anchor="middle" font-family="Arial,sans-serif" font-size="10" fill="#4ade80">strategy is flying blind</text>
  </g>
  <text x="340" y="300" text-anchor="middle" font-family="Arial,sans-serif" font-size="10" fill="#e2e8f0">Work through in order over 8-12 weeks. Stores see 30-60% organic revenue lift.</text>
</svg>