<svg viewBox="0 0 680 300" xmlns="http://www.w3.org/2000/svg" fill="none">
  <text x="340" y="28" text-anchor="middle" font-family="Arial,sans-serif" font-size="14" font-weight="bold" fill="#a78bfa">Factors That Drive SEO Pricing</text>
  <!-- Center -->
  <circle cx="340" cy="160" r="50" fill="#a78bfa" opacity="0.15" stroke="#a78bfa" stroke-width="1.5"/>
  <text x="340" y="155" text-anchor="middle" font-family="Arial,sans-serif" font-size="12" font-weight="bold" fill="#a78bfa">Your</text>
  <text x="340" y="170" text-anchor="middle" font-family="Arial,sans-serif" font-size="12" font-weight="bold" fill="#a78bfa">SEO Cost</text>
  <!-- Factor nodes -->
  <rect x="80" y="50" width="130" height="40" rx="8" fill="#60a5fa" opacity="0.15" stroke="#60a5fa" stroke-width="1"/>
  <text x="145" y="75" text-anchor="middle" font-family="Arial,sans-serif" font-size="10" fill="#e2e8f0">Store size (SKUs)</text>
  <line x1="210" y1="75" x2="295" y2="135" stroke="#60a5fa" stroke-width="1" opacity="0.4"/>
  <rect x="80" y="130" width="130" height="40" rx="8" fill="#4ade80" opacity="0.15" stroke="#4ade80" stroke-width="1"/>
  <text x="145" y="155" text-anchor="middle" font-family="Arial,sans-serif" font-size="10" fill="#e2e8f0">Competition level</text>
  <line x1="210" y1="150" x2="290" y2="155" stroke="#4ade80" stroke-width="1" opacity="0.4"/>
  <rect x="80" y="210" width="130" height="40" rx="8" fill="#f97316" opacity="0.15" stroke="#f97316" stroke-width="1"/>
  <text x="145" y="235" text-anchor="middle" font-family="Arial,sans-serif" font-size="10" fill="#e2e8f0">Technical debt</text>
  <line x1="210" y1="225" x2="295" y2="185" stroke="#f97316" stroke-width="1" opacity="0.4"/>
  <rect x="470" y="50" width="130" height="40" rx="8" fill="#ef4444" opacity="0.15" stroke="#ef4444" stroke-width="1"/>
  <text x="535" y="75" text-anchor="middle" font-family="Arial,sans-serif" font-size="10" fill="#e2e8f0">Content needs</text>
  <line x1="470" y1="75" x2="385" y2="135" stroke="#ef4444" stroke-width="1" opacity="0.4"/>
  <rect x="470" y="130" width="130" height="40" rx="8" fill="#a78bfa" opacity="0.15" stroke="#a78bfa" stroke-width="1"/>
  <text x="535" y="155" text-anchor="middle" font-family="Arial,sans-serif" font-size="10" fill="#e2e8f0">Link building scope</text>
  <line x1="470" y1="150" x2="390" y2="155" stroke="#a78bfa" stroke-width="1" opacity="0.4"/>
  <rect x="470" y="210" width="130" height="40" rx="8" fill="#60a5fa" opacity="0.15" stroke="#60a5fa" stroke-width="1"/>
  <text x="535" y="235" text-anchor="middle" font-family="Arial,sans-serif" font-size="10" fill="#e2e8f0">Target markets</text>
  <line x1="470" y1="225" x2="385" y2="185" stroke="#60a5fa" stroke-width="1" opacity="0.4"/>
</svg>