<svg viewBox="0 0 680 280" xmlns="http://www.w3.org/2000/svg" fill="none">
  <text x="340" y="28" text-anchor="middle" font-family="Arial,sans-serif" font-size="14" font-weight="bold" fill="#a78bfa">Common Sources of Duplicate Content</text>
  <!-- Center -->
  <rect x="260" y="110" width="160" height="60" rx="10" fill="#ef4444" opacity="0.15" stroke="#ef4444" stroke-width="1.5"/>
  <text x="340" y="137" text-anchor="middle" font-family="Arial,sans-serif" font-size="12" font-weight="bold" fill="#ef4444">Duplicate</text>
  <text x="340" y="153" text-anchor="middle" font-family="Arial,sans-serif" font-size="12" font-weight="bold" fill="#ef4444">Content</text>
  <!-- Sources radiating out -->
  <rect x="30" y="50" width="170" height="40" rx="8" fill="#f97316" opacity="0.15" stroke="#f97316" stroke-width="1"/>
  <text x="115" y="75" text-anchor="middle" font-family="Arial,sans-serif" font-size="10" fill="#e2e8f0">Product variant URLs</text>
  <line x1="200" y1="70" x2="260" y2="125" stroke="#f97316" stroke-width="1" opacity="0.4"/>
  <rect x="30" y="120" width="170" height="40" rx="8" fill="#60a5fa" opacity="0.15" stroke="#60a5fa" stroke-width="1"/>
  <text x="115" y="145" text-anchor="middle" font-family="Arial,sans-serif" font-size="10" fill="#e2e8f0">Filter/sort parameters</text>
  <line x1="200" y1="140" x2="260" y2="140" stroke="#60a5fa" stroke-width="1" opacity="0.4"/>
  <rect x="30" y="190" width="170" height="40" rx="8" fill="#a78bfa" opacity="0.15" stroke="#a78bfa" stroke-width="1"/>
  <text x="115" y="215" text-anchor="middle" font-family="Arial,sans-serif" font-size="10" fill="#e2e8f0">Session ID URLs</text>
  <line x1="200" y1="210" x2="260" y2="155" stroke="#a78bfa" stroke-width="1" opacity="0.4"/>
  <rect x="480" y="50" width="170" height="40" rx="8" fill="#4ade80" opacity="0.15" stroke="#4ade80" stroke-width="1"/>
  <text x="565" y="75" text-anchor="middle" font-family="Arial,sans-serif" font-size="10" fill="#e2e8f0">HTTP vs HTTPS</text>
  <line x1="480" y1="70" x2="420" y2="125" stroke="#4ade80" stroke-width="1" opacity="0.4"/>
  <rect x="480" y="120" width="170" height="40" rx="8" fill="#ef4444" opacity="0.15" stroke="#ef4444" stroke-width="1"/>
  <text x="565" y="145" text-anchor="middle" font-family="Arial,sans-serif" font-size="10" fill="#e2e8f0">www vs non-www</text>
  <line x1="480" y1="140" x2="420" y2="140" stroke="#ef4444" stroke-width="1" opacity="0.4"/>
  <rect x="480" y="190" width="170" height="40" rx="8" fill="#f97316" opacity="0.15" stroke="#f97316" stroke-width="1"/>
  <text x="565" y="215" text-anchor="middle" font-family="Arial,sans-serif" font-size="10" fill="#e2e8f0">Pagination pages</text>
  <line x1="480" y1="210" x2="420" y2="155" stroke="#f97316" stroke-width="1" opacity="0.4"/>
  <!-- Fix label -->
  <text x="340" y="265" text-anchor="middle" font-family="Arial,sans-serif" font-size="11" fill="#4ade80">Fix: canonical tags + robots directives + parameter handling</text>
</svg>