<svg viewBox="0 0 680 320" xmlns="http://www.w3.org/2000/svg" fill="none">
  <text x="340" y="28" text-anchor="middle" font-family="Arial,sans-serif" font-size="14" font-weight="bold" fill="#a78bfa">Shopify Speed Killers -- Script Payload Impact</text>
  <g transform="translate(60,55)">
    <text x="0" y="0" font-family="Arial,sans-serif" font-size="11" font-weight="bold" fill="#e2e8f0">Typical app script sizes per page load:</text>
    <rect x="0" y="15" width="350" height="22" rx="4" stroke="#ef4444" stroke-width="1" fill="none"/>
    <rect x="0" y="15" width="350" height="22" rx="4" fill="#ef4444" opacity="0.15"/>
    <text x="8" y="31" font-family="Arial,sans-serif" font-size="10" fill="#e2e8f0">Review app: 150-300 KB</text>
    <rect x="0" y="42" width="280" height="22" rx="4" stroke="#f97316" stroke-width="1" fill="none"/>
    <rect x="0" y="42" width="280" height="22" rx="4" fill="#f97316" opacity="0.15"/>
    <text x="8" y="58" font-family="Arial,sans-serif" font-size="10" fill="#e2e8f0">Live chat widget: 120-250 KB</text>
    <rect x="0" y="69" width="220" height="22" rx="4" stroke="#f97316" stroke-width="1" fill="none"/>
    <rect x="0" y="69" width="220" height="22" rx="4" fill="#f97316" opacity="0.15"/>
    <text x="8" y="85" font-family="Arial,sans-serif" font-size="10" fill="#e2e8f0">Email popup: 100-200 KB</text>
    <rect x="0" y="96" width="200" height="22" rx="4" stroke="#f97316" stroke-width="1" fill="none"/>
    <rect x="0" y="96" width="200" height="22" rx="4" fill="#f97316" opacity="0.15"/>
    <text x="8" y="112" font-family="Arial,sans-serif" font-size="10" fill="#e2e8f0">Currency converter: 80-150 KB</text>
    <rect x="0" y="123" width="180" height="22" rx="4" stroke="#f97316" stroke-width="1" fill="none"/>
    <rect x="0" y="123" width="180" height="22" rx="4" fill="#f97316" opacity="0.15"/>
    <text x="8" y="139" font-family="Arial,sans-serif" font-size="10" fill="#e2e8f0">Loyalty program: 70-130 KB</text>
    <rect x="0" y="150" width="130" height="22" rx="4" stroke="#60a5fa" stroke-width="1" fill="none"/>
    <rect x="0" y="150" width="130" height="22" rx="4" fill="#60a5fa" opacity="0.15"/>
    <text x="8" y="166" font-family="Arial,sans-serif" font-size="10" fill="#e2e8f0">Social share: 50-80 KB</text>
  </g>
  <g transform="translate(460,70)">
    <rect x="0" y="0" width="180" height="155" rx="8" stroke="#ef4444" stroke-width="2" fill="none"/>
    <text x="90" y="25" text-anchor="middle" font-family="Arial,sans-serif" font-size="12" font-weight="bold" fill="#ef4444">Combined Impact</text>
    <text x="90" y="60" text-anchor="middle" font-family="Arial,sans-serif" font-size="28" font-weight="bold" fill="#ef4444">1-2 MB</text>
    <text x="90" y="80" text-anchor="middle" font-family="Arial,sans-serif" font-size="10" fill="#e2e8f0">extra JS per page</text>
    <text x="90" y="105" text-anchor="middle" font-family="Arial,sans-serif" font-size="11" fill="#e2e8f0">6-24 additional</text>
    <text x="90" y="120" text-anchor="middle" font-family="Arial,sans-serif" font-size="11" fill="#e2e8f0">network requests</text>
    <text x="90" y="145" text-anchor="middle" font-family="Arial,sans-serif" font-size="10" fill="#4ade80">Audit apps ruthlessly</text>
  </g>
  <text x="340" y="295" text-anchor="middle" font-family="Arial,sans-serif" font-size="11" fill="#4ade80">One client: removed 9 scripts, LCP dropped from 4.8s to 2.1s</text>
</svg>