<svg viewBox="0 0 420 220" xmlns="http://www.w3.org/2000/svg" fill="none">
  <text x="210" y="22" text-anchor="middle" font-family="Arial,sans-serif" font-size="14" font-weight="bold" fill="#a78bfa">Programmatische SEO-Pipeline</text>
  <!-- Step boxes -->
  <rect x="10" y="42" width="85" height="50" rx="6" stroke="#a78bfa" stroke-width="1.5"/>
  <text x="52" y="62" text-anchor="middle" font-family="Arial,sans-serif" font-size="10" font-weight="bold" fill="#a78bfa">1. Stichwort</text>
  <text x="52" y="76" text-anchor="middle" font-family="Arial,sans-serif" font-size="9" fill="#e2e8f0">Muster</text>
  <text x="52" y="87" text-anchor="middle" font-family="Arial,sans-serif" font-size="8" fill="#94a3b8">Markentyp</text>
  <!-- Arrow -->
  <path d="M100 67 L115 67" stroke="#60a5fa" stroke-width="1.5" marker-end="url(#arr1)"/>
  <rect x="120" y="42" width="85" height="50" rx="6" stroke="#60a5fa" stroke-width="1.5"/>
  <text x="162" y="62" text-anchor="middle" font-family="Arial,sans-serif" font-size="10" font-weight="bold" fill="#60a5fa">2. Vorlage</text>
  <text x="162" y="76" text-anchor="middle" font-family="Arial,sans-serif" font-size="9" fill="#e2e8f0">Build</text>
  <text x="162" y="87" text-anchor="middle" font-family="Arial,sans-serif" font-size="8" fill="#94a3b8">Bedingte Logik</text>
  <path d="M210 67 L225 67" stroke="#4ade80" stroke-width="1.5" marker-end="url(#arr2)"/>
  <rect x="230" y="42" width="85" height="50" rx="6" stroke="#4ade80" stroke-width="1.5"/>
  <text x="272" y="62" text-anchor="middle" font-family="Arial,sans-serif" font-size="10" font-weight="bold" fill="#4ade80">3 Daten</text>
  <text x="272" y="76" text-anchor="middle" font-family="Arial,sans-serif" font-size="9" fill="#e2e8f0">Population</text>
  <text x="272" y="87" text-anchor="middle" font-family="Arial,sans-serif" font-size="8" fill="#94a3b8">3+ Quellen/Seite</text>
  <path d="M320 67 L335 67" stroke="#f97316" stroke-width="1.5" marker-end="url(#arr3)"/>
  <rect x="340" y="42" width="70" height="50" rx="6" stroke="#f97316" stroke-width="1.5"/>
  <text x="375" y="62" text-anchor="middle" font-family="Arial,sans-serif" font-size="10" font-weight="bold" fill="#f97316">4 - Veröffentlichung</text>
  <text x="375" y="76" text-anchor="middle" font-family="Arial,sans-serif" font-size="9" fill="#e2e8f0">Skaliert.</text>
  <text x="375" y="87" text-anchor="middle" font-family="Arial,sans-serif" font-size="8" fill="#94a3b8">Tausende von Seiten</text>
  <!-- Data sources row -->
  <text x="210" y="120" text-anchor="middle" font-family="Arial,sans-serif" font-size="11" font-weight="bold" fill="#e2e8f0">Datenquellen pro Seite</text>
  <rect x="15" y="132" width="75" height="32" rx="4" stroke="#4ade80" stroke-width="1" stroke-dasharray="3"/>
  <text x="52" y="152" text-anchor="middle" font-family="Arial,sans-serif" font-size="9" fill="#4ade80">Produktmerkmale</text>
  <rect x="100" y="132" width="75" height="32" rx="4" stroke="#60a5fa" stroke-width="1" stroke-dasharray="3"/>
  <text x="137" y="152" text-anchor="middle" font-family="Arial,sans-serif" font-size="9" fill="#60a5fa">Bewertungen</text>
  <rect x="185" y="132" width="75" height="32" rx="4" stroke="#a78bfa" stroke-width="1" stroke-dasharray="3"/>
  <text x="222" y="152" text-anchor="middle" font-family="Arial,sans-serif" font-size="9" fill="#a78bfa">Preise</text>
  <rect x="270" y="132" width="75" height="32" rx="4" stroke="#f97316" stroke-width="1" stroke-dasharray="3"/>
  <text x="307" y="152" text-anchor="middle" font-family="Arial,sans-serif" font-size="9" fill="#f97316">Kompatibilität</text>
  <rect x="355" y="132" width="55" height="32" rx="4" stroke="#ef4444" stroke-width="1" stroke-dasharray="3"/>
  <text x="382" y="152" text-anchor="middle" font-family="Arial,sans-serif" font-size="9" fill="#ef4444">Editorial</text>
  <!-- Quality gate -->
  <rect x="100" y="180" width="220" height="30" rx="6" stroke="#ef4444" stroke-width="1.5"/>
  <text x="210" y="199" text-anchor="middle" font-family="Arial,sans-serif" font-size="10" font-weight="bold" fill="#ef4444">Quality Gate: 70% Datenvollständigkeit Minimum</text>
  <defs>
    <marker id="arr1" markerWidth="6" markerHeight="6" refX="5" refY="3" orient="auto"><path d="M0,0 L6,3 L0,6" fill="#60a5fa"/></marker>
    <marker id="arr2" markerWidth="6" markerHeight="6" refX="5" refY="3" orient="auto"><path d="M0,0 L6,3 L0,6" fill="#4ade80"/></marker>
    <marker id="arr3" markerWidth="6" markerHeight="6" refX="5" refY="3" orient="auto"><path d="M0,0 L6,3 L0,6" fill="#f97316"/></marker>
  </defs>
</svg>