<svg viewBox="0 0 680 300" xmlns="http://www.w3.org/2000/svg" fill="none">
  <text x="340" y="28" text-anchor="middle" font-family="Arial,sans-serif" font-size="14" font-weight="bold" fill="#a78bfa">Ecommerce Channel Conversion Rates</text>
  <g transform="translate(60,55)">
    <text x="0" y="12" font-family="Arial,sans-serif" font-size="10" fill="#e2e8f0">Email</text>
    <rect x="80" y="0" width="328" height="20" rx="4" stroke="#4ade80" stroke-width="2" fill="none"/>
    <rect x="80" y="0" width="328" height="20" rx="4" fill="#4ade8022"/>
    <text x="420" y="14" font-family="Arial,sans-serif" font-size="11" font-weight="bold" fill="#4ade80">4.1%</text>
    <text x="470" y="14" font-family="Arial,sans-serif" font-size="9" fill="#e2e8f0">Limited by list size</text>
  </g>
  <g transform="translate(60,90)">
    <text x="0" y="12" font-family="Arial,sans-serif" font-size="10" fill="#e2e8f0">Paid Search</text>
    <rect x="80" y="0" width="256" height="20" rx="4" stroke="#60a5fa" stroke-width="2" fill="none"/>
    <rect x="80" y="0" width="256" height="20" rx="4" fill="#60a5fa22"/>
    <text x="348" y="14" font-family="Arial,sans-serif" font-size="11" font-weight="bold" fill="#60a5fa">3.2%</text>
    <text x="398" y="14" font-family="Arial,sans-serif" font-size="9" fill="#e2e8f0">Budget-limited</text>
  </g>
  <g transform="translate(60,125)">
    <text x="0" y="12" font-family="Arial,sans-serif" font-size="10" fill="#e2e8f0">Organic</text>
    <rect x="80" y="0" width="224" height="20" rx="4" stroke="#a78bfa" stroke-width="2" fill="none"/>
    <rect x="80" y="0" width="224" height="20" rx="4" fill="#a78bfa22"/>
    <text x="316" y="14" font-family="Arial,sans-serif" font-size="11" font-weight="bold" fill="#a78bfa">2.8%</text>
    <text x="366" y="14" font-family="Arial,sans-serif" font-size="9" fill="#e2e8f0">Unlimited volume</text>
  </g>
  <g transform="translate(60,160)">
    <text x="0" y="12" font-family="Arial,sans-serif" font-size="10" fill="#e2e8f0">Social</text>
    <rect x="80" y="0" width="56" height="20" rx="4" stroke="#f97316" stroke-width="2" fill="none"/>
    <rect x="80" y="0" width="56" height="20" rx="4" fill="#f9731622"/>
    <text x="148" y="14" font-family="Arial,sans-serif" font-size="11" font-weight="bold" fill="#f97316">0.7%</text>
    <text x="198" y="14" font-family="Arial,sans-serif" font-size="9" fill="#e2e8f0">Low intent traffic</text>
  </g>
  <g transform="translate(60,210)">
    <rect x="0" y="0" width="560" height="70" rx="6" stroke="#a78bfa" stroke-width="2" fill="none"/>
    <text x="280" y="20" text-anchor="middle" font-family="Arial,sans-serif" font-size="11" font-weight="bold" fill="#a78bfa">Organic Search Advantage</text>
    <text x="15" y="40" font-family="Arial,sans-serif" font-size="10" fill="#e2e8f0">12% higher repeat purchase rate vs paid-acquired customers</text>
    <text x="15" y="56" font-family="Arial,sans-serif" font-size="10" fill="#e2e8f0">Lower return rates -- organic visitors do genuine research before buying</text>
  </g>
</svg>