<svg viewBox="0 0 420 230" xmlns="http://www.w3.org/2000/svg" fill="none">
  <text x="210" y="18" text-anchor="middle" font-family="Arial,sans-serif" font-size="14" font-weight="bold" fill="#a78bfa">Mode SEO seizoenscyclus</text>
  <!-- Circular timeline -->
  <circle cx="210" cy="130" r="85" stroke="#a78bfa" stroke-width="1" opacity="0.3" fill="none"/>
  <!-- Season segments -->
  <path d="M210,45 A85,85 0 0,1 295,130" stroke="#f97316" stroke-width="3" fill="none"/>
  <text x="278" y="78" font-family="Arial,sans-serif" font-size="9" fill="#f97316" font-weight="bold">Lente/zomer</text>
  <text x="278" y="90" font-family="Arial,sans-serif" font-size="8" fill="#e2e8f0">Februari-juli</text>
  <path d="M295,130 A85,85 0 0,1 210,215" stroke="#ef4444" stroke-width="3" fill="none"/>
  <text x="278" y="178" font-family="Arial,sans-serif" font-size="9" fill="#ef4444" font-weight="bold">Herfst/Winter</text>
  <text x="278" y="190" font-family="Arial,sans-serif" font-size="8" fill="#e2e8f0">Augustus-Jan</text>
  <path d="M210,215 A85,85 0 0,1 125,130" stroke="#60a5fa" stroke-width="3" fill="none"/>
  <text x="88" y="190" font-family="Arial,sans-serif" font-size="9" fill="#60a5fa" font-weight="bold" text-anchor="end">Verkoop &amp;amp; Opruiming</text>
  <text x="88" y="202" font-family="Arial,sans-serif" font-size="8" fill="#e2e8f0" text-anchor="end">Jan, juli</text>
  <path d="M125,130 A85,85 0 0,1 210,45" stroke="#4ade80" stroke-width="3" fill="none"/>
  <text x="88" y="78" font-family="Arial,sans-serif" font-size="9" fill="#4ade80" font-weight="bold" text-anchor="end">Trendscouting</text>
  <text x="88" y="90" font-family="Arial,sans-serif" font-size="8" fill="#e2e8f0" text-anchor="end">Lopend</text>
  <!-- Center label -->
  <text x="210" y="125" text-anchor="middle" font-family="Arial,sans-serif" font-size="10" fill="#a78bfa" font-weight="bold">Pagina's publiceren</text>
  <text x="210" y="138" text-anchor="middle" font-family="Arial,sans-serif" font-size="9" fill="#e2e8f0">8+ weken ervoor</text>
  <text x="210" y="150" text-anchor="middle" font-family="Arial,sans-serif" font-size="9" fill="#e2e8f0">elke seizoenspiek</text>
</svg>