<svg viewBox="0 0 400 200" xmlns="http://www.w3.org/2000/svg" fill="none">
  <text x="200" y="20" text-anchor="middle" font-family="Arial,sans-serif" font-size="14" font-weight="bold" fill="#a78bfa">SEO Monitoring &amp;amp; Alert Systeem</text>
  <!-- Data sources row -->
  <rect x="15" y="38" width="80" height="35" rx="5" stroke="#60a5fa" stroke-width="1.5"/>
  <text x="55" y="55" text-anchor="middle" font-family="Arial,sans-serif" font-size="8" font-weight="bold" fill="#60a5fa">Search Console</text>
  <text x="55" y="66" text-anchor="middle" font-family="Arial,sans-serif" font-size="7" fill="#e2e8f0">Indexdekking</text>
  <rect x="105" y="38" width="80" height="35" rx="5" stroke="#4ade80" stroke-width="1.5"/>
  <text x="145" y="55" text-anchor="middle" font-family="Arial,sans-serif" font-size="8" font-weight="bold" fill="#4ade80">Rank Tracker</text>
  <text x="145" y="66" text-anchor="middle" font-family="Arial,sans-serif" font-size="7" fill="#e2e8f0">Dagelijkse posities</text>
  <rect x="195" y="38" width="80" height="35" rx="5" stroke="#a78bfa" stroke-width="1.5"/>
  <text x="235" y="55" text-anchor="middle" font-family="Arial,sans-serif" font-size="8" font-weight="bold" fill="#a78bfa">API voor rijke resultaten</text>
  <text x="235" y="66" text-anchor="middle" font-family="Arial,sans-serif" font-size="7" fill="#e2e8f0">Geldigheid van het schema</text>
  <rect x="285" y="38" width="100" height="35" rx="5" stroke="#f97316" stroke-width="1.5"/>
  <text x="335" y="55" text-anchor="middle" font-family="Arial,sans-serif" font-size="8" font-weight="bold" fill="#f97316">PageSpeed API</text>
  <text x="335" y="66" text-anchor="middle" font-family="Arial,sans-serif" font-size="7" fill="#e2e8f0">Core Web Vitals</text>
  <!-- Arrows down -->
  <path d="M55 73 L55 88" stroke="#60a5fa" stroke-width="1"/>
  <path d="M145 73 L145 88" stroke="#4ade80" stroke-width="1"/>
  <path d="M235 73 L235 88" stroke="#a78bfa" stroke-width="1"/>
  <path d="M335 73 L335 88" stroke="#f97316" stroke-width="1"/>
  <!-- Central dashboard -->
  <rect x="40" y="88" width="320" height="35" rx="6" stroke="#a78bfa" stroke-width="2"/>
  <text x="200" y="108" text-anchor="middle" font-family="Arial,sans-serif" font-size="11" font-weight="bold" fill="#a78bfa">Unified SEO Health Dashboard</text>
  <text x="200" y="120" text-anchor="middle" font-family="Arial,sans-serif" font-size="8" fill="#e2e8f0">Verzamelt alle statistieken in één weergave voor correlatieanalyse</text>
  <!-- Alert triggers -->
  <text x="200" y="145" text-anchor="middle" font-family="Arial,sans-serif" font-size="10" font-weight="bold" fill="#ef4444">Waarschuwingsactiveringen</text>
  <rect x="15" y="152" width="90" height="22" rx="3" stroke="#ef4444" stroke-width="1"/>
  <text x="60" y="167" text-anchor="middle" font-family="Arial,sans-serif" font-size="7" fill="#ef4444">Indexdaling &amp;gt;5%</text>
  <rect x="115" y="152" width="90" height="22" rx="3" stroke="#ef4444" stroke-width="1"/>
  <text x="160" y="167" text-anchor="middle" font-family="Arial,sans-serif" font-size="7" fill="#ef4444">Rangdaling &amp;gt;5 pos</text>
  <rect x="215" y="152" width="90" height="22" rx="3" stroke="#ef4444" stroke-width="1"/>
  <text x="260" y="167" text-anchor="middle" font-family="Arial,sans-serif" font-size="7" fill="#ef4444">Schemafouten</text>
  <rect x="315" y="152" width="70" height="22" rx="3" stroke="#ef4444" stroke-width="1"/>
  <text x="350" y="167" text-anchor="middle" font-family="Arial,sans-serif" font-size="7" fill="#ef4444">CWV mislukt</text>
  <!-- Content monitor -->
  <text x="200" y="192" text-anchor="middle" font-family="Arial,sans-serif" font-size="8" fill="#94a3b8">+ Monitoring van inhoudswijzigingen detecteert ongeoorloofde bewerkingen van titels, canonicals, koppen</text>
</svg>