<svg viewBox="0 0 420 200" xmlns="http://www.w3.org/2000/svg" fill="none">
  <text x="210" y="22" text-anchor="middle" font-family="Arial,sans-serif" font-size="14" font-weight="bold" fill="#a78bfa">SEO versus betaald: ROI na verloop van tijd</text>
  <line x1="50" y1="170" x2="390" y2="170" stroke="#475569" stroke-width="1"/>
  <line x1="50" y1="40" x2="50" y2="170" stroke="#475569" stroke-width="1"/>
  <text x="40" y="175" font-family="Arial,sans-serif" font-size="9" fill="#94a3b8" text-anchor="end">0</text>
  <text x="120" y="185" text-anchor="middle" font-family="Arial,sans-serif" font-size="9" fill="#94a3b8">3 mnd</text>
  <text x="220" y="185" text-anchor="middle" font-family="Arial,sans-serif" font-size="9" fill="#94a3b8">6 mnd</text>
  <text x="310" y="185" text-anchor="middle" font-family="Arial,sans-serif" font-size="9" fill="#94a3b8">12 mnd</text>
  <text x="380" y="185" text-anchor="middle" font-family="Arial,sans-serif" font-size="9" fill="#94a3b8">24 mnd</text>
  <text x="25" y="46" font-family="Arial,sans-serif" font-size="9" fill="#94a3b8" text-anchor="end">ROI</text>
  <polyline points="50,160 120,100 220,90 310,85 380,82" stroke="#f97316" stroke-width="2" stroke-dasharray="6,3"/>
  <polyline points="50,165 120,145 220,110 310,70 380,45" stroke="#4ade80" stroke-width="2.5"/>
  <circle cx="310" cy="70" r="3" fill="#4ade80"/>
  <circle cx="310" cy="85" r="3" fill="#f97316"/>
  <rect x="260" y="34" width="12" height="3" rx="1" fill="#4ade80"/>
  <text x="278" y="38" font-family="Arial,sans-serif" font-size="10" fill="#4ade80">SEO (compounds)</text>
  <rect x="260" y="48" width="12" height="3" rx="1" fill="#f97316"/>
  <text x="278" y="52" font-family="Arial,sans-serif" font-size="10" fill="#f97316">Betaald (plat)</text>
  <text x="350" y="58" font-family="Arial,sans-serif" font-size="8" fill="#94a3b8" text-anchor="middle">Cross-over</text>
  <line x1="230" y1="40" x2="230" y2="170" stroke="#a78bfa" stroke-width="0.7" stroke-dasharray="3,3" opacity="0.5"/>
  <text x="230" y="198" text-anchor="middle" font-family="Arial,sans-serif" font-size="8" fill="#a78bfa">SEO haalt Betaald in</text>
</svg>