<svg viewBox="0 0 680 300" xmlns="http://www.w3.org/2000/svg" fill="none">
  <text x="340" y="28" text-anchor="middle" font-family="Arial,sans-serif" font-size="14" font-weight="bold" fill="#a78bfa">B2B Catalog Optimization Hierarchy</text>
  <rect x="230" y="50" width="220" height="40" rx="6" stroke="#a78bfa" stroke-width="2" fill="none"/>
  <text x="340" y="75" text-anchor="middle" font-family="Arial,sans-serif" font-size="12" font-weight="bold" fill="#a78bfa">Product Category</text>
  <line x1="280" y1="90" x2="140" y2="120" stroke="#a78bfa" stroke-width="1.5" stroke-dasharray="4"/>
  <line x1="340" y1="90" x2="340" y2="120" stroke="#a78bfa" stroke-width="1.5" stroke-dasharray="4"/>
  <line x1="400" y1="90" x2="540" y2="120" stroke="#a78bfa" stroke-width="1.5" stroke-dasharray="4"/>
  <rect x="60" y="120" width="160" height="36" rx="6" stroke="#60a5fa" stroke-width="1.5" fill="none"/>
  <text x="140" y="143" text-anchor="middle" font-family="Arial,sans-serif" font-size="11" font-weight="bold" fill="#60a5fa">By Type</text>
  <rect x="260" y="120" width="160" height="36" rx="6" stroke="#f97316" stroke-width="1.5" fill="none"/>
  <text x="340" y="143" text-anchor="middle" font-family="Arial,sans-serif" font-size="11" font-weight="bold" fill="#f97316">By Material</text>
  <rect x="460" y="120" width="160" height="36" rx="6" stroke="#4ade80" stroke-width="1.5" fill="none"/>
  <text x="540" y="143" text-anchor="middle" font-family="Arial,sans-serif" font-size="11" font-weight="bold" fill="#4ade80">By Standard</text>
  <line x1="140" y1="156" x2="140" y2="180" stroke="#60a5fa" stroke-width="1" stroke-dasharray="4"/>
  <line x1="340" y1="156" x2="340" y2="180" stroke="#f97316" stroke-width="1" stroke-dasharray="4"/>
  <line x1="540" y1="156" x2="540" y2="180" stroke="#4ade80" stroke-width="1" stroke-dasharray="4"/>
  <text x="140" y="195" text-anchor="middle" font-family="Arial,sans-serif" font-size="10" fill="#e2e8f0">Bolts, Screws, Rivets</text>
  <text x="340" y="195" text-anchor="middle" font-family="Arial,sans-serif" font-size="10" fill="#e2e8f0">Stainless, Brass, Ti</text>
  <text x="540" y="195" text-anchor="middle" font-family="Arial,sans-serif" font-size="10" fill="#e2e8f0">Metric, Imperial, DIN</text>
  <rect x="100" y="220" width="480" height="36" rx="6" stroke="#f472b6" stroke-width="1.5" fill="none"/>
  <text x="340" y="238" text-anchor="middle" font-family="Arial,sans-serif" font-size="11" fill="#f472b6">+ Original descriptions, spec tables, application notes, compliance data</text>
  <line x1="20" y1="272" x2="660" y2="272" stroke="#a78bfa" stroke-width="1" stroke-dasharray="4"/>
  <text x="340" y="292" text-anchor="middle" font-family="Arial,sans-serif" font-size="11" fill="#a78bfa">Structure catalogs by how B2B buyers actually search</text>
</svg>