<svg xmlns="http://www.w3.org/2000/svg" xmlns:xlink="http://www.w3.org/1999/xlink" viewBox="0 0 157 35" overflow="visible"><path d="M 4.721 4.473 L 0 27.173 L 4.314 27.173 L 7.376 12.524 C 8.778 11.444 10.105 10.884 11.287 10.884 C 12.724 10.884 13.461 11.629 13.461 13.083 C 13.461 13.568 13.388 14.052 13.277 14.649 L 11.285 23.259 C 11.138 23.817 11.027 24.34 11.027 24.787 C 11.027 26.501 12.282 27.545 14.163 27.545 C 16.08 27.545 17.702 26.501 18.477 24.787 L 18.404 24.749 C 17.887 25.159 17.334 25.384 16.78 25.384 C 15.969 25.384 15.49 24.936 15.49 24.042 C 15.49 23.78 15.562 23.444 15.675 22.886 L 17.738 13.902 C 17.887 13.269 17.998 12.673 17.998 12.076 C 17.998 9.691 16.559 8.46 14.383 8.46 C 12.245 8.46 9.588 9.729 7.486 12.114 L 10.033 0 L 9.997 0 L 3.283 1.49 L 3.283 1.565 L 4.352 2.46 C 4.869 2.944 5.016 3.205 4.721 4.473 Z M 27.285 27.545 C 30.604 27.545 33.666 25.495 34.993 21.731 L 34.918 21.693 C 33.519 23.221 31.784 23.968 30.014 23.968 C 27.063 23.968 24.924 21.955 24.924 17.929 C 24.924 17.184 24.998 16.4 25.145 15.692 L 35.878 15.692 C 36.061 14.986 36.16 14.26 36.172 13.53 C 36.172 10.361 34.034 8.461 30.862 8.461 C 25.367 8.461 20.608 14.052 20.608 20.166 C 20.608 24.824 23.486 27.545 27.285 27.545 Z M 25.294 14.984 C 26.103 11.667 28.243 9.056 30.418 9.056 C 31.673 9.056 32.484 9.95 32.484 11.926 C 32.484 12.858 32.299 13.864 31.93 14.983 L 25.292 14.983 Z M 38.901 35 L 38.974 35 C 39.453 32.279 40.191 30.565 41.961 27.844 L 54.612 8.61 L 54.574 8.536 L 48.859 9.877 L 48.859 9.952 C 50.186 10.996 50.739 11.629 50.739 12.337 C 50.739 12.785 50.592 13.269 50.149 13.866 L 45.244 21.47 L 43.068 8.461 L 43.031 8.461 L 37.683 9.654 L 37.683 9.727 C 38.901 10.809 39.159 11.293 39.38 12.711 L 41.925 27.173 C 38.275 28.887 35.803 30.937 34.291 33.249 L 34.291 33.359 Z M 62.512 27.39 C 60.17 27.39 58.322 26.88 56.965 25.862 C 55.609 24.831 54.84 23.357 54.659 21.439 C 54.623 21.16 54.732 21.02 54.984 21.02 L 58.244 21.02 C 58.436 21.02 58.555 21.137 58.604 21.367 C 58.808 22.374 59.216 23.096 59.828 23.533 C 60.453 23.971 61.348 24.188 62.512 24.188 C 63.472 24.188 64.241 23.981 64.816 23.57 C 65.394 23.157 65.682 22.604 65.682 21.913 C 65.682 21.257 65.472 20.761 65.05 20.42 C 64.642 20.081 63.946 19.82 62.962 19.638 L 60.333 19.164 C 58.532 18.824 57.199 18.212 56.335 17.326 C 55.483 16.428 55.056 15.191 55.056 13.614 C 55.056 11.891 55.687 10.513 56.946 9.482 C 58.208 8.451 59.906 7.936 62.043 7.936 C 64.132 7.936 65.801 8.415 67.05 9.373 C 68.298 10.331 69.024 11.691 69.229 13.45 C 69.244 13.562 69.211 13.674 69.138 13.759 C 69.076 13.833 68.983 13.874 68.887 13.869 L 65.645 13.869 C 65.441 13.869 65.308 13.752 65.249 13.523 C 65.069 12.673 64.727 12.066 64.222 11.703 C 63.717 11.327 62.992 11.139 62.043 11.139 C 61.083 11.139 60.35 11.333 59.847 11.721 C 59.342 12.097 59.089 12.65 59.089 13.377 C 59.089 13.984 59.27 14.47 59.63 14.833 C 59.991 15.184 60.645 15.445 61.593 15.616 L 64.402 16.144 C 66.383 16.508 67.764 17.114 68.544 17.964 C 69.324 18.812 69.715 20.056 69.715 21.694 C 69.715 23.526 69.09 24.935 67.842 25.917 C 66.594 26.899 64.816 27.39 62.512 27.39 Z M 73.965 27.173 C 73.712 27.173 73.587 27.051 73.587 26.809 L 73.587 0.71 C 73.583 0.608 73.622 0.509 73.694 0.436 C 73.765 0.364 73.864 0.325 73.965 0.328 L 77.314 0.328 C 77.555 0.328 77.675 0.455 77.675 0.71 L 77.675 10.919 L 77.836 10.919 C 79.206 8.929 81.12 7.935 83.581 7.935 C 85.731 7.935 87.376 8.664 88.516 10.119 C 89.656 11.575 90.226 13.704 90.226 16.507 L 90.226 26.809 C 90.226 27.051 90.1 27.173 89.847 27.173 L 86.5 27.173 C 86.246 27.173 86.12 27.051 86.12 26.809 L 86.12 16.507 C 86.12 14.748 85.784 13.468 85.112 12.667 C 84.439 11.855 83.377 11.448 81.924 11.448 C 80.471 11.448 79.398 11.861 78.701 12.685 C 78.017 13.498 77.675 14.771 77.675 16.507 L 77.675 26.809 C 77.675 27.051 77.555 27.173 77.314 27.173 L 73.966 27.173 Z M 101.895 27.39 C 99.351 27.39 97.321 26.517 95.808 24.77 C 94.308 23.011 93.557 20.657 93.557 17.709 C 93.557 14.736 94.308 12.364 95.808 10.592 C 97.322 8.821 99.351 7.935 101.895 7.935 C 103.107 7.935 104.248 8.215 105.317 8.772 C 106.385 9.33 107.244 10.095 107.892 11.066 L 108.055 11.066 L 108.055 8.536 C 108.055 8.294 108.175 8.171 108.415 8.171 L 111.763 8.171 C 112.016 8.171 112.143 8.294 112.143 8.536 L 112.143 23.896 L 114.177 23.896 C 114.417 23.896 114.538 24.017 114.538 24.261 L 114.538 26.809 C 114.538 27.051 114.417 27.173 114.177 27.173 L 111.44 27.173 C 109.303 27.173 108.234 26.263 108.234 24.443 L 108.234 24.297 L 108.089 24.297 C 107.454 25.244 106.577 25.996 105.462 26.553 C 104.354 27.112 103.132 27.399 101.895 27.39 Z M 97.717 17.709 C 97.717 19.674 98.192 21.222 99.14 22.349 C 100.088 23.478 101.385 24.042 103.03 24.042 C 104.651 24.042 105.916 23.484 106.83 22.368 C 107.742 21.239 108.199 19.686 108.199 17.709 C 108.199 15.718 107.737 14.153 106.812 13.013 C 105.899 11.872 104.639 11.302 103.03 11.302 C 101.385 11.302 100.088 11.872 99.14 13.013 C 98.192 14.153 97.717 15.718 97.717 17.709 Z M 118.049 34.252 C 117.796 34.252 117.671 34.131 117.671 33.887 L 117.671 8.537 C 117.671 8.295 117.796 8.172 118.049 8.172 L 121.219 8.172 C 121.458 8.172 121.58 8.295 121.58 8.537 L 121.58 11.031 L 121.722 11.031 C 122.359 10.083 123.229 9.332 124.334 8.773 C 125.448 8.216 126.675 7.929 127.917 7.936 C 130.462 7.936 132.486 8.816 133.986 10.576 C 135.498 12.335 136.255 14.688 136.255 17.637 C 136.255 20.611 135.498 22.982 133.986 24.754 C 132.486 26.512 130.462 27.393 127.917 27.393 C 126.726 27.398 125.552 27.11 124.496 26.555 C 123.458 26.025 122.572 25.235 121.92 24.262 L 121.759 24.262 L 121.759 33.89 C 121.759 34.132 121.639 34.255 121.398 34.255 L 118.05 34.255 Z M 121.614 17.636 C 121.614 19.625 122.07 21.191 122.984 22.331 C 123.907 23.472 125.174 24.042 126.783 24.042 C 128.428 24.042 129.724 23.472 130.673 22.331 C 131.621 21.191 132.096 19.625 132.096 17.636 C 132.096 15.67 131.62 14.122 130.673 12.995 C 129.724 11.866 128.428 11.302 126.783 11.302 C 125.162 11.302 123.896 11.866 122.984 12.994 C 122.07 14.111 121.614 15.658 121.614 17.636 Z M 148.339 27.39 C 145.445 27.39 143.135 26.517 141.406 24.77 C 139.689 23.011 138.83 20.657 138.83 17.709 C 138.83 14.723 139.689 12.352 141.406 10.592 C 143.123 8.821 145.433 7.935 148.339 7.935 C 151.016 7.935 153.129 8.81 154.677 10.555 C 156.227 12.291 157 14.664 157 17.672 L 157 18.673 C 157 18.928 156.88 19.055 156.641 19.055 L 143.026 19.055 C 143.171 20.633 143.699 21.858 144.611 22.731 C 145.523 23.606 146.767 24.042 148.339 24.042 C 149.563 24.042 150.56 23.823 151.328 23.386 C 152.097 22.938 152.612 22.313 152.876 21.512 C 152.948 21.306 153.081 21.203 153.273 21.203 L 156.532 21.203 C 156.652 21.203 156.749 21.232 156.821 21.295 C 156.893 21.343 156.916 21.416 156.893 21.513 C 156.557 23.284 155.632 24.71 154.12 25.789 C 152.619 26.857 150.691 27.39 148.339 27.39 Z M 143.062 16.034 L 152.984 16.034 C 152.901 14.566 152.445 13.414 151.616 12.577 C 150.788 11.726 149.696 11.302 148.339 11.302 C 146.79 11.302 145.566 11.703 144.666 12.504 C 143.777 13.304 143.243 14.481 143.062 16.033 Z" fill="rgb(255,255,255)"></path></svg>