<?xml version="1.0" encoding="UTF-8"?>
<svg width="109px" height="24px" viewBox="0 0 109 24" version="1.1" xmlns="http://www.w3.org/2000/svg" xmlns:xlink="http://www.w3.org/1999/xlink">
    <title>Group</title>
    <g id="Page-1" stroke="none" stroke-width="1" fill="none" fill-rule="evenodd">
        <g id="Group" fill="#FFFFFF" fill-rule="nonzero">
            <path d="M3.27157,3.06709 L0,18.6326 L2.99042,18.6326 L5.11182,8.58786 C6.08307,7.84665 7.00319,7.46326 7.82109,7.46326 C8.81789,7.46326 9.32907,7.97444 9.32907,8.97125 C9.32907,9.30352 9.27796,9.63578 9.20128,10.0447 L7.82109,15.9489 C7.71885,16.3323 7.64217,16.6901 7.64217,16.9968 C7.64217,18.1725 8.51118,18.8882 9.8147,18.8882 C11.1438,18.8882 12.2684,18.1725 12.8051,16.9968 L12.754,16.9712 C12.3962,17.2524 12.0128,17.4058 11.6294,17.4058 C11.0671,17.4058 10.7348,17.099 10.7348,16.4856 C10.7348,16.3067 10.7859,16.0767 10.8626,15.6933 L12.2939,9.53355 C12.3962,9.09904 12.4728,8.6901 12.4728,8.28115 C12.4728,6.64537 11.476,5.80192 9.96805,5.80192 C8.48562,5.80192 6.64537,6.67093 5.1885,8.30671 L6.95208,0 L6.92652,0 L2.27476,1.02236 L2.27476,1.07348 L3.01597,1.6869 C3.3738,2.01917 3.47604,2.19808 3.27157,3.06709 Z" id="Path"></path>
            <path d="M18.9087,18.8882 C21.2091,18.8882 23.3305,17.4824 24.2506,14.901 L24.1995,14.8754 C23.2282,15.9233 22.027,16.4345 20.8001,16.4345 C18.7554,16.4345 17.273,15.0543 17.273,12.2939 C17.273,11.7827 17.3241,11.246 17.4263,10.7604 L24.864,10.7604 C24.9918,10.2492 25.0685,9.73802 25.0685,9.27796 C25.0685,7.10543 23.5861,5.80192 21.388,5.80192 C17.5797,5.80192 14.2825,9.63578 14.2825,13.8275 C14.2825,17.0224 16.2762,18.8882 18.9087,18.8882 Z M17.5286,10.2748 C18.0909,8 19.5733,6.21086 21.0813,6.21086 C21.9503,6.21086 22.5126,6.82428 22.5126,8.17891 C22.5126,8.81789 22.3848,9.50799 22.1292,10.2748 L17.5286,10.2748 Z" id="Shape"></path>
            <path d="M26.9589,24 L27.01,24 C27.3423,22.1342 27.8534,20.9585 29.0803,19.0927 L37.847,5.90415 L37.8215,5.85304 L33.8598,6.77316 L33.8598,6.82428 C34.78,7.53994 35.1633,7.97444 35.1633,8.46006 C35.1633,8.76677 35.0611,9.09904 34.7544,9.50799 L31.355,14.722 L29.847,5.80192 L29.8215,5.80192 L26.1154,6.61981 L26.1154,6.67093 C26.9589,7.41214 27.1378,7.74441 27.2911,8.71566 L29.0547,18.6326 C26.5244,19.8083 24.8119,21.2141 23.764,22.7987 L23.764,22.8754 L26.9589,24 Z" id="Path"></path>
            <path d="M43.3217,18.7823 C41.6993,18.7823 40.418,18.4329 39.4778,17.734 C38.5377,17.0268 38.0052,16.0159 37.8804,14.7014 C37.8554,14.51 37.9303,14.4143 38.105,14.4143 L40.3639,14.4143 C40.497,14.4143 40.5802,14.4934 40.6135,14.6515 C40.755,15.342 41.0378,15.8371 41.4622,16.1366 C41.8948,16.4361 42.5146,16.5859 43.3217,16.5859 C43.9873,16.5859 44.5198,16.4444 44.9191,16.1615 C45.3185,15.8787 45.5182,15.5001 45.5182,15.0259 C45.5182,14.5766 45.3726,14.2355 45.0814,14.0025 C44.7985,13.7695 44.3159,13.5907 43.6337,13.4659 L41.8116,13.1414 C40.5636,12.9084 39.6401,12.4883 39.041,11.8809 C38.4503,11.2652 38.1549,10.4166 38.1549,9.33497 C38.1549,8.15352 38.5918,7.2092 39.4654,6.502 C40.339,5.7948 41.5162,5.4412 42.9972,5.4412 C44.4449,5.4412 45.6014,5.76984 46.4667,6.42712 C47.3319,7.0844 47.8353,8.01624 47.9767,9.22264 C47.9851,9.30585 47.9643,9.37657 47.9143,9.43481 C47.8727,9.48473 47.8145,9.50969 47.7396,9.50969 L45.4932,9.50969 C45.3518,9.50969 45.2602,9.43064 45.2186,9.27256 C45.0938,8.69016 44.8567,8.27416 44.5073,8.02456 C44.1578,7.76664 43.6545,7.63768 42.9972,7.63768 C42.3316,7.63768 41.8241,7.7708 41.4746,8.03704 C41.1252,8.29496 40.9505,8.67352 40.9505,9.17272 C40.9505,9.58873 41.0753,9.92153 41.3249,10.1711 C41.5745,10.4124 42.0279,10.5913 42.6852,10.7078 L44.6321,11.0697 C46.0049,11.3193 46.9617,11.7353 47.5025,12.3177 C48.0433,12.9001 48.3137,13.7529 48.3137,14.8761 C48.3137,16.1324 47.8811,17.0975 47.0158,17.7715 C46.1505,18.4454 44.9191,18.7823 43.3217,18.7823 Z" id="Path"></path>
            <path d="M51.259,18.6326 C51.0843,18.6326 50.9969,18.5494 50.9969,18.383 L50.9969,0.486622 C50.9969,0.411742 51.0219,0.349342 51.0718,0.299422 C51.1217,0.249502 51.1841,0.224542 51.259,0.224542 L53.5803,0.224542 C53.7467,0.224542 53.8299,0.311902 53.8299,0.486622 L53.8299,7.48792 L53.9422,7.48792 C54.8907,6.12344 56.2177,5.4412 57.9233,5.4412 C59.4126,5.4412 60.5524,5.9404 61.3428,6.9388 C62.1333,7.9372 62.5285,9.39737 62.5285,11.3193 L62.5285,18.383 C62.5285,18.5494 62.4411,18.6326 62.2664,18.6326 L59.9451,18.6326 C59.7704,18.6326 59.683,18.5494 59.683,18.383 L59.683,11.3193 C59.683,10.1129 59.45,9.23512 58.9841,8.686 C58.5182,8.12856 57.7819,7.84984 56.7752,7.84984 C55.7684,7.84984 55.0238,8.13272 54.5412,8.69848 C54.067,9.25593 53.8299,10.1295 53.8299,11.3193 L53.8299,18.383 C53.8299,18.5494 53.7467,18.6326 53.5803,18.6326 L51.259,18.6326 Z" id="Path"></path>
            <path d="M70.6155,18.7823 C68.8517,18.7823 67.4456,18.1833 66.3973,16.9852 C65.3573,15.7788 64.8373,14.1647 64.8373,12.143 C64.8373,10.1046 65.3573,8.478 66.3973,7.26328 C67.4456,6.04856 68.8517,5.4412 70.6155,5.4412 C71.4558,5.4412 72.2462,5.63256 72.9867,6.01528 C73.7272,6.398 74.3221,6.92216 74.7714,7.58776 L74.8837,7.58776 L74.8837,5.85304 C74.8837,5.68664 74.9669,5.60344 75.1333,5.60344 L77.4546,5.60344 C77.6293,5.60344 77.7167,5.68664 77.7167,5.85304 L77.7167,16.3862 L79.1269,16.3862 C79.2933,16.3862 79.3765,16.4694 79.3765,16.6358 L79.3765,18.383 C79.3765,18.5494 79.2933,18.6326 79.1269,18.6326 L77.2299,18.6326 C75.749,18.6326 75.0085,18.0086 75.0085,16.7606 L75.0085,16.6607 L74.9086,16.6607 C74.4677,17.3097 73.8603,17.8255 73.0866,18.2083 C72.3211,18.591 71.4974,18.7823 70.6155,18.7823 Z M67.7201,12.143 C67.7201,13.4908 68.0488,14.5516 68.7061,15.3254 C69.3633,16.0991 70.2619,16.486 71.4018,16.486 C72.525,16.486 73.4027,16.1033 74.035,15.3379 C74.6674,14.5641 74.9835,13.4991 74.9835,12.143 C74.9835,10.7785 74.6632,9.70521 74.0226,8.92312 C73.3902,8.14104 72.5166,7.75 71.4018,7.75 C70.2619,7.75 69.3633,8.14104 68.7061,8.92312 C68.0488,9.70521 67.7201,10.7785 67.7201,12.143 Z" id="Shape"></path>
            <path d="M81.8101,23.4873 C81.6354,23.4873 81.548,23.4041 81.548,23.2377 L81.548,5.85304 C81.548,5.68664 81.6354,5.60344 81.8101,5.60344 L84.0066,5.60344 C84.173,5.60344 84.2562,5.68664 84.2562,5.85304 L84.2562,7.5628 L84.356,7.5628 C84.797,6.91384 85.4002,6.398 86.1656,6.01528 C86.9394,5.63256 87.7672,5.4412 88.6492,5.4412 C90.413,5.4412 91.8149,6.0444 92.8549,7.2508 C93.9033,8.4572 94.4274,10.0713 94.4274,12.0931 C94.4274,14.1315 93.9033,15.758 92.8549,16.9727 C91.8149,18.1791 90.413,18.7823 88.6492,18.7823 C87.8088,18.7823 87.0184,18.591 86.278,18.2083 C85.5375,17.8255 84.9426,17.3014 84.4933,16.6358 L84.381,16.6358 L84.381,23.2377 C84.381,23.4041 84.2978,23.4873 84.1314,23.4873 L81.8101,23.4873 Z M84.2812,12.0931 C84.2812,13.4575 84.5973,14.5308 85.2296,15.3129 C85.8703,16.095 86.748,16.486 87.8629,16.486 C89.0028,16.486 89.9013,16.095 90.5586,15.3129 C91.2159,14.5308 91.5445,13.4575 91.5445,12.0931 C91.5445,10.7452 91.2159,9.68441 90.5586,8.91064 C89.9013,8.13688 89.0028,7.75 87.8629,7.75 C86.7397,7.75 85.862,8.13688 85.2296,8.91064 C84.5973,9.67609 84.2812,10.7369 84.2812,12.0931 Z" id="Shape"></path>
            <path d="M102.802,18.7823 C100.796,18.7823 99.1948,18.1833 97.9967,16.9852 C96.8069,15.7788 96.2121,14.1647 96.2121,12.143 C96.2121,10.0962 96.8069,8.46968 97.9967,7.26328 C99.1865,6.04856 100.788,5.4412 102.802,5.4412 C104.657,5.4412 106.121,6.04024 107.194,7.23832 C108.268,8.42808 108.804,10.0546 108.804,12.118 L108.804,12.8044 C108.804,12.9791 108.721,13.0665 108.555,13.0665 L99.1199,13.0665 C99.2197,14.1481 99.5858,14.9884 100.218,15.5875 C100.85,16.1865 101.712,16.486 102.802,16.486 C103.65,16.486 104.341,16.3363 104.873,16.0367 C105.406,15.7289 105.763,15.3004 105.946,14.7513 C105.996,14.6099 106.088,14.5391 106.221,14.5391 L108.48,14.5391 C108.563,14.5391 108.63,14.5599 108.68,14.6015 C108.73,14.6348 108.746,14.6847 108.73,14.7513 C108.497,15.966 107.856,16.9436 106.808,17.6841 C105.768,18.4163 104.432,18.7823 102.802,18.7823 Z M99.1449,10.9948 L106.021,10.9948 C105.963,9.98809 105.647,9.19768 105.073,8.6236 C104.499,8.0412 103.742,7.75 102.802,7.75 C101.728,7.75 100.88,8.02456 100.256,8.57368 C99.6399,9.1228 99.2697,9.92985 99.1449,10.9948 Z" id="Shape"></path>
        </g>
    </g>
</svg>