<svg xmlns="http://www.w3.org/2000/svg" xmlns:xlink="http://www.w3.org/1999/xlink" viewBox="0 0 79 21.114" overflow="visible"><g><g><g><path d="M 5.069 11.788 L 5.069 18.739 C 5.098 19.376 5.299 19.579 5.962 19.752 L 5.962 20.216 L 0 20.216 L 0 19.752 C 0.662 19.579 0.835 19.376 0.893 18.739 L 0.893 2.375 C 0.835 1.738 0.662 1.535 0 1.361 L 0 0.898 L 5.962 0.898 L 5.962 1.361 C 5.299 1.535 5.127 1.738 5.069 2.375 L 5.069 8.602 L 16.186 8.602 L 16.186 2.375 C 16.129 1.738 15.956 1.535 15.294 1.361 L 15.294 0.898 L 21.256 0.898 L 21.256 1.361 C 20.593 1.535 20.391 1.738 20.363 2.375 L 20.363 18.739 C 20.392 19.376 20.593 19.579 21.256 19.752 L 21.256 20.216 L 15.294 20.216 L 15.294 19.752 C 15.956 19.579 16.129 19.376 16.186 18.739 L 16.186 11.788 Z" fill="rgb(255,255,255)"></path><path d="M 31.537 20.216 L 25.575 20.216 L 25.575 19.752 C 26.237 19.579 26.41 19.376 26.468 18.739 L 26.468 2.375 C 26.41 1.738 26.237 1.535 25.575 1.361 L 25.575 0.898 L 31.537 0.898 L 31.537 1.361 C 30.874 1.535 30.702 1.738 30.644 2.375 L 30.644 18.739 C 30.673 19.376 30.874 19.579 31.537 19.752 Z" fill="rgb(255,255,255)"></path><path d="M 40.954 13.554 L 40.954 18.739 C 41.012 19.376 41.185 19.579 41.847 19.752 L 41.847 20.216 L 35.885 20.216 L 35.885 19.752 C 36.548 19.579 36.721 19.376 36.778 18.739 L 36.778 2.375 C 36.721 1.738 36.548 1.535 35.885 1.361 L 35.885 0.898 L 41.847 0.898 L 41.847 1.361 C 41.185 1.535 41.012 1.738 40.954 2.375 L 40.954 9.123 L 48.587 2.867 C 49.249 2.346 49.422 2.114 49.422 1.912 C 49.422 1.651 49.134 1.448 48.587 1.361 L 48.587 0.898 L 56.45 0.898 L 56.45 1.361 C 56.018 1.419 55.845 1.506 55.586 1.68 C 55.47 1.767 55.326 1.854 55.182 1.999 C 54.606 2.462 54.002 2.954 53.426 3.447 L 46.916 8.718 L 54.318 17.667 C 55.931 19.55 56.046 19.637 56.939 19.752 L 56.939 20.216 L 49.451 20.216 L 49.451 19.752 C 49.941 19.666 50.171 19.492 50.171 19.231 C 50.171 19.028 50.056 18.884 49.508 18.189 L 43.835 11.18 Z" fill="rgb(255,255,255)"></path><path d="M 65.175 17.03 L 77.56 17.03 C 78.165 16.972 78.395 16.798 78.568 16.132 L 79 16.132 L 79 21.114 L 78.568 21.114 C 78.395 20.448 78.193 20.274 77.56 20.216 L 60.106 20.216 L 60.106 19.752 C 60.769 19.579 60.942 19.376 60.999 18.739 L 60.999 2.375 C 60.942 1.738 60.769 1.535 60.106 1.361 L 60.106 0.898 L 77.214 0.898 C 77.848 0.84 78.05 0.666 78.222 0 L 78.683 0 L 78.683 4.982 L 78.222 4.982 C 78.05 4.315 77.848 4.142 77.214 4.084 L 65.175 4.084 L 65.175 8.689 L 72.98 8.689 C 73.614 8.66 73.816 8.457 73.988 7.762 L 74.449 7.762 L 74.449 12.657 L 73.988 12.657 C 73.816 11.991 73.614 11.817 72.98 11.759 L 65.175 11.759 Z" fill="rgb(255,255,255)"></path></g></g></g></svg>